999
"DXF R12 Output" (www.mydxf.blogspot.com)
 0 
SECTION
 2 
HEADER
 9 
$ACADVER
 1 
AC1009
 9 
$EXTMIN
 10 
 0 
 20 
 0 
 9 
$EXTMAX
 10 
 8.5 
 20 
 11 
 0 
ENDSEC
 0 
SECTION
 2 
ENTITIES
0
LINE
8
Layer 1
10
0.846666
20
317.647000
11
-0.846666
21
315.953000
0
LINE
8
Layer 1
10
0.000000
20
318.211000
11
0.000000
21
315.389000
0
LINE
8
Layer 1
10
2.257780
20
315.671000
11
1.128890
21
314.542110
0
LINE
8
Layer 1
10
1.693330
20
316.236000
11
0.564440
21
315.107110
0
LINE
8
Layer 1
10
1.128890
20
316.800000
11
0.000000
21
315.671110
0
LINE
8
0
10
65.117500
20
240.662000
11
65.002831
21
242.459884
0
LINE
8
0
10
65.002831
20
242.459884
11
64.656558
21
244.203905
0
LINE
8
0
10
64.656558
20
244.203905
11
64.090103
21
245.874197
0
LINE
8
0
10
64.090103
20
245.874197
11
63.314886
21
247.450895
0
LINE
8
0
10
63.314886
20
247.450895
11
62.342328
21
248.914134
0
LINE
8
0
10
62.342328
20
248.914134
11
61.183851
21
250.244051
0
LINE
8
0
10
61.183851
20
250.244051
11
59.850875
21
251.420778
0
LINE
8
0
10
59.850875
20
251.420778
11
58.354822
21
252.424453
0
LINE
8
0
10
58.354822
20
252.424453
11
56.739028
21
253.221164
0
LINE
8
0
10
56.739028
20
253.221164
11
55.054492
21
253.790243
0
LINE
8
0
10
55.054492
20
253.790243
11
53.324128
21
254.131690
0
LINE
8
0
10
53.324128
20
254.131690
11
51.570850
21
254.245506
0
LINE
8
0
10
51.570850
20
254.245506
11
49.817572
21
254.131690
0
LINE
8
0
10
49.817572
20
254.131690
11
48.087208
21
253.790243
0
LINE
8
0
10
48.087208
20
253.790243
11
46.402672
21
253.221164
0
LINE
8
0
10
46.402672
20
253.221164
11
44.786878
21
252.424453
0
LINE
8
0
10
44.786878
20
252.424453
11
43.290825
21
251.420778
0
LINE
8
0
10
43.290825
20
251.420778
11
41.957849
21
250.244051
0
LINE
8
0
10
41.957849
20
250.244051
11
40.799372
21
248.914134
0
LINE
8
0
10
40.799372
20
248.914134
11
39.826814
21
247.450895
0
LINE
8
0
10
39.826814
20
247.450895
11
39.051597
21
245.874197
0
LINE
8
0
10
39.051597
20
245.874197
11
38.485142
21
244.203905
0
LINE
8
0
10
38.485142
20
244.203905
11
38.138869
21
242.459884
0
LINE
8
0
10
38.138869
20
242.459884
11
38.024200
21
240.662000
0
LINE
8
0
10
38.024200
20
240.662000
11
38.138869
21
238.864116
0
LINE
8
0
10
38.138869
20
238.864116
11
38.485142
21
237.120095
0
LINE
8
0
10
38.485142
20
237.120095
11
39.051597
21
235.449803
0
LINE
8
0
10
39.051597
20
235.449803
11
39.826814
21
233.873105
0
LINE
8
0
10
39.826814
20
233.873105
11
40.799372
21
232.409866
0
LINE
8
0
10
40.799372
20
232.409866
11
41.957849
21
231.079949
0
LINE
8
0
10
41.957849
20
231.079949
11
43.290825
21
229.903222
0
LINE
8
0
10
43.290825
20
229.903222
11
44.786878
21
228.899547
0
LINE
8
0
10
44.786878
20
228.899547
11
46.402672
21
228.102836
0
LINE
8
0
10
46.402672
20
228.102836
11
48.087208
21
227.533757
0
LINE
8
0
10
48.087208
20
227.533757
11
49.817572
21
227.192310
0
LINE
8
0
10
49.817572
20
227.192310
11
51.570850
21
227.078494
0
LINE
8
0
10
51.570850
20
227.078494
11
53.324128
21
227.192310
0
LINE
8
0
10
53.324128
20
227.192310
11
55.054492
21
227.533757
0
LINE
8
0
10
55.054492
20
227.533757
11
56.739028
21
228.102836
0
LINE
8
0
10
56.739028
20
228.102836
11
58.354822
21
228.899547
0
LINE
8
0
10
58.354822
20
228.899547
11
59.850875
21
229.903222
0
LINE
8
0
10
59.850875
20
229.903222
11
61.183851
21
231.079949
0
LINE
8
0
10
61.183851
20
231.079949
11
62.342328
21
232.409866
0
LINE
8
0
10
62.342328
20
232.409866
11
63.314886
21
233.873105
0
LINE
8
0
10
63.314886
20
233.873105
11
64.090103
21
235.449803
0
LINE
8
0
10
64.090103
20
235.449803
11
64.656558
21
237.120095
0
LINE
8
0
10
64.656558
20
237.120095
11
65.002831
21
238.864116
0
LINE
8
0
10
65.002831
20
238.864116
11
65.117500
21
240.662000
0
LINE
8
0
10
65.117500
20
240.662000
11
65.117500
21
240.662000
0
LINE
8
0
10
100.809000
20
231.098000
11
100.694331
21
232.895884
0
LINE
8
0
10
100.694331
20
232.895884
11
100.348058
21
234.639905
0
LINE
8
0
10
100.348058
20
234.639905
11
99.781603
21
236.310197
0
LINE
8
0
10
99.781603
20
236.310197
11
99.006386
21
237.886895
0
LINE
8
0
10
99.006386
20
237.886895
11
98.033828
21
239.350134
0
LINE
8
0
10
98.033828
20
239.350134
11
96.875351
21
240.680051
0
LINE
8
0
10
96.875351
20
240.680051
11
95.542375
21
241.856778
0
LINE
8
0
10
95.542375
20
241.856778
11
94.046322
21
242.860453
0
LINE
8
0
10
94.046322
20
242.860453
11
92.430528
21
243.657164
0
LINE
8
0
10
92.430528
20
243.657164
11
90.745992
21
244.226243
0
LINE
8
0
10
90.745992
20
244.226243
11
89.015628
21
244.567690
0
LINE
8
0
10
89.015628
20
244.567690
11
87.262350
21
244.681506
0
LINE
8
0
10
87.262350
20
244.681506
11
85.509072
21
244.567690
0
LINE
8
0
10
85.509072
20
244.567690
11
83.778708
21
244.226243
0
LINE
8
0
10
83.778708
20
244.226243
11
82.094172
21
243.657164
0
LINE
8
0
10
82.094172
20
243.657164
11
80.478378
21
242.860453
0
LINE
8
0
10
80.478378
20
242.860453
11
78.982325
21
241.856778
0
LINE
8
0
10
78.982325
20
241.856778
11
77.649349
21
240.680051
0
LINE
8
0
10
77.649349
20
240.680051
11
76.490872
21
239.350134
0
LINE
8
0
10
76.490872
20
239.350134
11
75.518314
21
237.886895
0
LINE
8
0
10
75.518314
20
237.886895
11
74.743097
21
236.310197
0
LINE
8
0
10
74.743097
20
236.310197
11
74.176642
21
234.639905
0
LINE
8
0
10
74.176642
20
234.639905
11
73.830369
21
232.895884
0
LINE
8
0
10
73.830369
20
232.895884
11
73.715700
21
231.098000
0
LINE
8
0
10
73.715700
20
231.098000
11
73.830369
21
229.300116
0
LINE
8
0
10
73.830369
20
229.300116
11
74.176642
21
227.556095
0
LINE
8
0
10
74.176642
20
227.556095
11
74.743097
21
225.885803
0
LINE
8
0
10
74.743097
20
225.885803
11
75.518314
21
224.309105
0
LINE
8
0
10
75.518314
20
224.309105
11
76.490872
21
222.845866
0
LINE
8
0
10
76.490872
20
222.845866
11
77.649349
21
221.515949
0
LINE
8
0
10
77.649349
20
221.515949
11
78.982325
21
220.339222
0
LINE
8
0
10
78.982325
20
220.339222
11
80.478378
21
219.335547
0
LINE
8
0
10
80.478378
20
219.335547
11
82.094172
21
218.538836
0
LINE
8
0
10
82.094172
20
218.538836
11
83.778708
21
217.969757
0
LINE
8
0
10
83.778708
20
217.969757
11
85.509072
21
217.628310
0
LINE
8
0
10
85.509072
20
217.628310
11
87.262350
21
217.514494
0
LINE
8
0
10
87.262350
20
217.514494
11
89.015628
21
217.628310
0
LINE
8
0
10
89.015628
20
217.628310
11
90.745992
21
217.969757
0
LINE
8
0
10
90.745992
20
217.969757
11
92.430528
21
218.538836
0
LINE
8
0
10
92.430528
20
218.538836
11
94.046322
21
219.335547
0
LINE
8
0
10
94.046322
20
219.335547
11
95.542375
21
220.339222
0
LINE
8
0
10
95.542375
20
220.339222
11
96.875351
21
221.515949
0
LINE
8
0
10
96.875351
20
221.515949
11
98.033828
21
222.845866
0
LINE
8
0
10
98.033828
20
222.845866
11
99.006386
21
224.309105
0
LINE
8
0
10
99.006386
20
224.309105
11
99.781603
21
225.885803
0
LINE
8
0
10
99.781603
20
225.885803
11
100.348058
21
227.556095
0
LINE
8
0
10
100.348058
20
227.556095
11
100.694331
21
229.300116
0
LINE
8
0
10
100.694331
20
229.300116
11
100.809000
21
231.098000
0
LINE
8
0
10
100.809000
20
231.098000
11
100.809000
21
231.098000
0
LINE
8
0
10
91.245400
20
266.790000
11
91.130731
21
268.587884
0
LINE
8
0
10
91.130731
20
268.587884
11
90.784458
21
270.331905
0
LINE
8
0
10
90.784458
20
270.331905
11
90.218003
21
272.002197
0
LINE
8
0
10
90.218003
20
272.002197
11
89.442786
21
273.578895
0
LINE
8
0
10
89.442786
20
273.578895
11
88.470228
21
275.042134
0
LINE
8
0
10
88.470228
20
275.042134
11
87.311751
21
276.372051
0
LINE
8
0
10
87.311751
20
276.372051
11
85.978775
21
277.548778
0
LINE
8
0
10
85.978775
20
277.548778
11
84.482722
21
278.552453
0
LINE
8
0
10
84.482722
20
278.552453
11
82.866928
21
279.349164
0
LINE
8
0
10
82.866928
20
279.349164
11
81.182392
21
279.918243
0
LINE
8
0
10
81.182392
20
279.918243
11
79.452028
21
280.259690
0
LINE
8
0
10
79.452028
20
280.259690
11
77.698750
21
280.373506
0
LINE
8
0
10
77.698750
20
280.373506
11
75.945472
21
280.259690
0
LINE
8
0
10
75.945472
20
280.259690
11
74.215108
21
279.918243
0
LINE
8
0
10
74.215108
20
279.918243
11
72.530572
21
279.349164
0
LINE
8
0
10
72.530572
20
279.349164
11
70.914778
21
278.552453
0
LINE
8
0
10
70.914778
20
278.552453
11
69.418725
21
277.548778
0
LINE
8
0
10
69.418725
20
277.548778
11
68.085749
21
276.372051
0
LINE
8
0
10
68.085749
20
276.372051
11
66.927272
21
275.042134
0
LINE
8
0
10
66.927272
20
275.042134
11
65.954714
21
273.578895
0
LINE
8
0
10
65.954714
20
273.578895
11
65.179497
21
272.002197
0
LINE
8
0
10
65.179497
20
272.002197
11
64.613042
21
270.331905
0
LINE
8
0
10
64.613042
20
270.331905
11
64.266769
21
268.587884
0
LINE
8
0
10
64.266769
20
268.587884
11
64.152100
21
266.790000
0
LINE
8
0
10
64.152100
20
266.790000
11
64.266769
21
264.992116
0
LINE
8
0
10
64.266769
20
264.992116
11
64.613042
21
263.248095
0
LINE
8
0
10
64.613042
20
263.248095
11
65.179497
21
261.577803
0
LINE
8
0
10
65.179497
20
261.577803
11
65.954714
21
260.001105
0
LINE
8
0
10
65.954714
20
260.001105
11
66.927272
21
258.537866
0
LINE
8
0
10
66.927272
20
258.537866
11
68.085749
21
257.207949
0
LINE
8
0
10
68.085749
20
257.207949
11
69.418725
21
256.031222
0
LINE
8
0
10
69.418725
20
256.031222
11
70.914778
21
255.027547
0
LINE
8
0
10
70.914778
20
255.027547
11
72.530572
21
254.230836
0
LINE
8
0
10
72.530572
20
254.230836
11
74.215108
21
253.661757
0
LINE
8
0
10
74.215108
20
253.661757
11
75.945472
21
253.320310
0
LINE
8
0
10
75.945472
20
253.320310
11
77.698750
21
253.206494
0
LINE
8
0
10
77.698750
20
253.206494
11
79.452028
21
253.320310
0
LINE
8
0
10
79.452028
20
253.320310
11
81.182392
21
253.661757
0
LINE
8
0
10
81.182392
20
253.661757
11
82.866928
21
254.230836
0
LINE
8
0
10
82.866928
20
254.230836
11
84.482722
21
255.027547
0
LINE
8
0
10
84.482722
20
255.027547
11
85.978775
21
256.031222
0
LINE
8
0
10
85.978775
20
256.031222
11
87.311751
21
257.207949
0
LINE
8
0
10
87.311751
20
257.207949
11
88.470228
21
258.537866
0
LINE
8
0
10
88.470228
20
258.537866
11
89.442786
21
260.001105
0
LINE
8
0
10
89.442786
20
260.001105
11
90.218003
21
261.577803
0
LINE
8
0
10
90.218003
20
261.577803
11
90.784458
21
263.248095
0
LINE
8
0
10
90.784458
20
263.248095
11
91.130731
21
264.992116
0
LINE
8
0
10
91.130731
20
264.992116
11
91.245400
21
266.790000
0
LINE
8
0
10
91.245400
20
266.790000
11
91.245400
21
266.790000
0
LINE
8
0
10
50.487100
20
271.073000
11
50.376330
21
271.907936
0
LINE
8
0
10
50.376330
20
271.907936
11
50.058381
21
272.673000
0
LINE
8
0
10
50.058381
20
272.673000
11
49.554791
21
273.330884
0
LINE
8
0
10
49.554791
20
273.330884
11
48.887100
21
273.844281
0
LINE
8
0
10
48.887100
20
273.844281
11
48.108639
21
274.165820
0
LINE
8
0
10
48.108639
20
274.165820
11
47.287100
21
274.273000
0
LINE
8
0
10
47.287100
20
274.273000
11
46.465561
21
274.165820
0
LINE
8
0
10
46.465561
20
274.165820
11
45.687100
21
273.844281
0
LINE
8
0
10
45.687100
20
273.844281
11
45.019409
21
273.330884
0
LINE
8
0
10
45.019409
20
273.330884
11
44.515819
21
272.673000
0
LINE
8
0
10
44.515819
20
272.673000
11
44.197870
21
271.907936
0
LINE
8
0
10
44.197870
20
271.907936
11
44.087100
21
271.073000
0
LINE
8
0
10
44.087100
20
271.073000
11
44.197870
21
270.238064
0
LINE
8
0
10
44.197870
20
270.238064
11
44.515819
21
269.473000
0
LINE
8
0
10
44.515819
20
269.473000
11
45.019409
21
268.815116
0
LINE
8
0
10
45.019409
20
268.815116
11
45.687100
21
268.301719
0
LINE
8
0
10
45.687100
20
268.301719
11
46.465561
21
267.980180
0
LINE
8
0
10
46.465561
20
267.980180
11
47.287100
21
267.873000
0
LINE
8
0
10
47.287100
20
267.873000
11
48.108639
21
267.980180
0
LINE
8
0
10
48.108639
20
267.980180
11
48.887100
21
268.301719
0
LINE
8
0
10
48.887100
20
268.301719
11
49.554791
21
268.815116
0
LINE
8
0
10
49.554791
20
268.815116
11
50.058381
21
269.473000
0
LINE
8
0
10
50.058381
20
269.473000
11
50.376330
21
270.238064
0
LINE
8
0
10
50.376330
20
270.238064
11
50.487100
21
271.073000
0
LINE
8
0
10
50.487100
20
271.073000
11
50.487100
21
271.073000
0
LINE
8
0
10
75.697300
20
300.263000
11
75.576739
21
301.182613
0
LINE
8
0
10
75.576739
20
301.182613
11
75.227690
21
302.025506
0
LINE
8
0
10
75.227690
20
302.025506
11
74.673875
21
302.750485
0
LINE
8
0
10
74.673875
20
302.750485
11
73.939017
21
303.316353
0
LINE
8
0
10
73.939017
20
303.316353
11
73.081931
21
303.670788
0
LINE
8
0
10
73.081931
20
303.670788
11
72.177305
21
303.788933
0
LINE
8
0
10
72.177305
20
303.788933
11
71.272679
21
303.670788
0
LINE
8
0
10
71.272679
20
303.670788
11
70.415593
21
303.316353
0
LINE
8
0
10
70.415593
20
303.316353
11
69.680735
21
302.750485
0
LINE
8
0
10
69.680735
20
302.750485
11
69.126920
21
302.025506
0
LINE
8
0
10
69.126920
20
302.025506
11
68.777871
21
301.182613
0
LINE
8
0
10
68.777871
20
301.182613
11
68.657310
21
300.263000
0
LINE
8
0
10
68.657310
20
300.263000
11
68.777871
21
299.343387
0
LINE
8
0
10
68.777871
20
299.343387
11
69.126920
21
298.500494
0
LINE
8
0
10
69.126920
20
298.500494
11
69.680735
21
297.775515
0
LINE
8
0
10
69.680735
20
297.775515
11
70.415593
21
297.209647
0
LINE
8
0
10
70.415593
20
297.209647
11
71.272679
21
296.855212
0
LINE
8
0
10
71.272679
20
296.855212
11
72.177305
21
296.737067
0
LINE
8
0
10
72.177305
20
296.737067
11
73.081931
21
296.855212
0
LINE
8
0
10
73.081931
20
296.855212
11
73.939017
21
297.209647
0
LINE
8
0
10
73.939017
20
297.209647
11
74.673875
21
297.775515
0
LINE
8
0
10
74.673875
20
297.775515
11
75.227690
21
298.500494
0
LINE
8
0
10
75.227690
20
298.500494
11
75.576739
21
299.343387
0
LINE
8
0
10
75.576739
20
299.343387
11
75.697300
21
300.263000
0
LINE
8
0
10
75.697300
20
300.263000
11
75.697300
21
300.263000
0
LINE
8
0
10
21.617300
20
246.183000
11
21.496739
21
247.102613
0
LINE
8
0
10
21.496739
20
247.102613
11
21.147690
21
247.945506
0
LINE
8
0
10
21.147690
20
247.945506
11
20.593875
21
248.670485
0
LINE
8
0
10
20.593875
20
248.670485
11
19.859017
21
249.236353
0
LINE
8
0
10
19.859017
20
249.236353
11
19.001931
21
249.590788
0
LINE
8
0
10
19.001931
20
249.590788
11
18.097305
21
249.708933
0
LINE
8
0
10
18.097305
20
249.708933
11
17.192679
21
249.590788
0
LINE
8
0
10
17.192679
20
249.590788
11
16.335593
21
249.236353
0
LINE
8
0
10
16.335593
20
249.236353
11
15.600735
21
248.670485
0
LINE
8
0
10
15.600735
20
248.670485
11
15.046920
21
247.945506
0
LINE
8
0
10
15.046920
20
247.945506
11
14.697871
21
247.102613
0
LINE
8
0
10
14.697871
20
247.102613
11
14.577310
21
246.183000
0
LINE
8
0
10
14.577310
20
246.183000
11
14.697871
21
245.263387
0
LINE
8
0
10
14.697871
20
245.263387
11
15.046920
21
244.420494
0
LINE
8
0
10
15.046920
20
244.420494
11
15.600735
21
243.695515
0
LINE
8
0
10
15.600735
20
243.695515
11
16.335593
21
243.129647
0
LINE
8
0
10
16.335593
20
243.129647
11
17.192679
21
242.775212
0
LINE
8
0
10
17.192679
20
242.775212
11
18.097305
21
242.657067
0
LINE
8
0
10
18.097305
20
242.657067
11
19.001931
21
242.775212
0
LINE
8
0
10
19.001931
20
242.775212
11
19.859017
21
243.129647
0
LINE
8
0
10
19.859017
20
243.129647
11
20.593875
21
243.695515
0
LINE
8
0
10
20.593875
20
243.695515
11
21.147690
21
244.420494
0
LINE
8
0
10
21.147690
20
244.420494
11
21.496739
21
245.263387
0
LINE
8
0
10
21.496739
20
245.263387
11
21.617300
21
246.183000
0
LINE
8
0
10
21.617300
20
246.183000
11
21.617300
21
246.183000
0
LINE
8
0
10
75.697300
20
192.103000
11
75.576739
21
193.022613
0
LINE
8
0
10
75.576739
20
193.022613
11
75.227690
21
193.865506
0
LINE
8
0
10
75.227690
20
193.865506
11
74.673875
21
194.590485
0
LINE
8
0
10
74.673875
20
194.590485
11
73.939017
21
195.156353
0
LINE
8
0
10
73.939017
20
195.156353
11
73.081931
21
195.510788
0
LINE
8
0
10
73.081931
20
195.510788
11
72.177305
21
195.628933
0
LINE
8
0
10
72.177305
20
195.628933
11
71.272679
21
195.510788
0
LINE
8
0
10
71.272679
20
195.510788
11
70.415593
21
195.156353
0
LINE
8
0
10
70.415593
20
195.156353
11
69.680735
21
194.590485
0
LINE
8
0
10
69.680735
20
194.590485
11
69.126920
21
193.865506
0
LINE
8
0
10
69.126920
20
193.865506
11
68.777871
21
193.022613
0
LINE
8
0
10
68.777871
20
193.022613
11
68.657310
21
192.103000
0
LINE
8
0
10
68.657310
20
192.103000
11
68.777871
21
191.183387
0
LINE
8
0
10
68.777871
20
191.183387
11
69.126920
21
190.340494
0
LINE
8
0
10
69.126920
20
190.340494
11
69.680735
21
189.615515
0
LINE
8
0
10
69.680735
20
189.615515
11
70.415593
21
189.049647
0
LINE
8
0
10
70.415593
20
189.049647
11
71.272679
21
188.695212
0
LINE
8
0
10
71.272679
20
188.695212
11
72.177305
21
188.577067
0
LINE
8
0
10
72.177305
20
188.577067
11
73.081931
21
188.695212
0
LINE
8
0
10
73.081931
20
188.695212
11
73.939017
21
189.049647
0
LINE
8
0
10
73.939017
20
189.049647
11
74.673875
21
189.615515
0
LINE
8
0
10
74.673875
20
189.615515
11
75.227690
21
190.340494
0
LINE
8
0
10
75.227690
20
190.340494
11
75.576739
21
191.183387
0
LINE
8
0
10
75.576739
20
191.183387
11
75.697300
21
192.103000
0
LINE
8
0
10
75.697300
20
192.103000
11
75.697300
21
192.103000
0
LINE
8
0
10
129.777000
20
246.183000
11
129.656439
21
247.102613
0
LINE
8
0
10
129.656439
20
247.102613
11
129.307390
21
247.945506
0
LINE
8
0
10
129.307390
20
247.945506
11
128.753575
21
248.670485
0
LINE
8
0
10
128.753575
20
248.670485
11
128.018717
21
249.236353
0
LINE
8
0
10
128.018717
20
249.236353
11
127.161631
21
249.590788
0
LINE
8
0
10
127.161631
20
249.590788
11
126.257005
21
249.708933
0
LINE
8
0
10
126.257005
20
249.708933
11
125.352379
21
249.590788
0
LINE
8
0
10
125.352379
20
249.590788
11
124.495293
21
249.236353
0
LINE
8
0
10
124.495293
20
249.236353
11
123.760435
21
248.670485
0
LINE
8
0
10
123.760435
20
248.670485
11
123.206620
21
247.945506
0
LINE
8
0
10
123.206620
20
247.945506
11
122.857571
21
247.102613
0
LINE
8
0
10
122.857571
20
247.102613
11
122.737010
21
246.183000
0
LINE
8
0
10
122.737010
20
246.183000
11
122.857571
21
245.263387
0
LINE
8
0
10
122.857571
20
245.263387
11
123.206620
21
244.420494
0
LINE
8
0
10
123.206620
20
244.420494
11
123.760435
21
243.695515
0
LINE
8
0
10
123.760435
20
243.695515
11
124.495293
21
243.129647
0
LINE
8
0
10
124.495293
20
243.129647
11
125.352379
21
242.775212
0
LINE
8
0
10
125.352379
20
242.775212
11
126.257005
21
242.657067
0
LINE
8
0
10
126.257005
20
242.657067
11
127.161631
21
242.775212
0
LINE
8
0
10
127.161631
20
242.775212
11
128.018717
21
243.129647
0
LINE
8
0
10
128.018717
20
243.129647
11
128.753575
21
243.695515
0
LINE
8
0
10
128.753575
20
243.695515
11
129.307390
21
244.420494
0
LINE
8
0
10
129.307390
20
244.420494
11
129.656439
21
245.263387
0
LINE
8
0
10
129.656439
20
245.263387
11
129.777000
21
246.183000
0
LINE
8
0
10
129.777000
20
246.183000
11
129.777000
21
246.183000
0
LINE
8
0
10
136.924000
20
246.183000
11
136.787779
21
250.502891
0
LINE
8
0
10
136.787779
20
250.502891
11
136.368398
21
254.770117
0
LINE
8
0
10
136.368398
20
254.770117
11
135.672676
21
258.972837
0
LINE
8
0
10
135.672676
20
258.972837
11
134.707431
21
263.099209
0
LINE
8
0
10
134.707431
20
263.099209
11
133.479482
21
267.137390
0
LINE
8
0
10
133.479482
20
267.137390
11
131.995647
21
271.075539
0
LINE
8
0
10
131.995647
20
271.075539
11
130.262745
21
274.901814
0
LINE
8
0
10
130.262745
20
274.901814
11
128.287594
21
278.604373
0
LINE
8
0
10
128.287594
20
278.604373
11
126.077012
21
282.171374
0
LINE
8
0
10
126.077012
20
282.171374
11
123.637819
21
285.590974
0
LINE
8
0
10
123.637819
20
285.590974
11
120.976832
21
288.851332
0
LINE
8
0
10
120.976832
20
288.851332
11
118.100870
21
291.940606
0
LINE
8
0
10
118.100870
20
291.940606
11
115.016752
21
294.846954
0
LINE
8
0
10
115.016752
20
294.846954
11
111.731296
21
297.558533
0
LINE
8
0
10
111.731296
20
297.558533
11
108.251321
21
300.063503
0
LINE
8
0
10
108.251321
20
300.063503
11
104.583644
21
302.350020
0
LINE
8
0
10
104.583644
20
302.350020
11
100.772009
21
304.387530
0
LINE
8
0
10
100.772009
20
304.387530
11
96.864720
21
306.153372
0
LINE
8
0
10
96.864720
20
306.153372
11
92.875444
21
307.647545
0
LINE
8
0
10
92.875444
20
307.647545
11
88.817843
21
308.870051
0
LINE
8
0
10
88.817843
20
308.870051
11
84.705584
21
309.820889
0
LINE
8
0
10
84.705584
20
309.820889
11
80.552330
21
310.500059
0
LINE
8
0
10
80.552330
20
310.500059
11
76.371748
21
310.907561
0
LINE
8
0
10
76.371748
20
310.907561
11
72.177500
21
311.043395
0
LINE
8
0
10
72.177500
20
311.043395
11
67.983252
21
310.907561
0
LINE
8
0
10
67.983252
20
310.907561
11
63.802670
21
310.500059
0
LINE
8
0
10
63.802670
20
310.500059
11
59.649416
21
309.820889
0
LINE
8
0
10
59.649416
20
309.820889
11
55.537157
21
308.870051
0
LINE
8
0
10
55.537157
20
308.870051
11
51.479556
21
307.647545
0
LINE
8
0
10
51.479556
20
307.647545
11
47.490280
21
306.153372
0
LINE
8
0
10
47.490280
20
306.153372
11
43.582991
21
304.387530
0
LINE
8
0
10
43.582991
20
304.387530
11
39.771356
21
302.350020
0
LINE
8
0
10
39.771356
20
302.350020
11
36.103679
21
300.063503
0
LINE
8
0
10
36.103679
20
300.063503
11
32.623704
21
297.558533
0
LINE
8
0
10
32.623704
20
297.558533
11
29.338248
21
294.846954
0
LINE
8
0
10
29.338248
20
294.846954
11
26.254130
21
291.940606
0
LINE
8
0
10
26.254130
20
291.940606
11
23.378168
21
288.851332
0
LINE
8
0
10
23.378168
20
288.851332
11
20.717181
21
285.590974
0
LINE
8
0
10
20.717181
20
285.590974
11
18.277988
21
282.171374
0
LINE
8
0
10
18.277988
20
282.171374
11
16.067406
21
278.604373
0
LINE
8
0
10
16.067406
20
278.604373
11
14.092255
21
274.901814
0
LINE
8
0
10
14.092255
20
274.901814
11
12.359353
21
271.075539
0
LINE
8
0
10
12.359353
20
271.075539
11
10.875518
21
267.137390
0
LINE
8
0
10
10.875518
20
267.137390
11
9.647569
21
263.099209
0
LINE
8
0
10
9.647569
20
263.099209
11
8.682324
21
258.972837
0
LINE
8
0
10
8.682324
20
258.972837
11
7.986602
21
254.770117
0
LINE
8
0
10
7.986602
20
254.770117
11
7.567221
21
250.502891
0
LINE
8
0
10
7.567221
20
250.502891
11
7.431000
21
246.183000
0
LINE
8
0
10
7.431000
20
246.183000
11
7.567221
21
241.863109
0
LINE
8
0
10
7.567221
20
241.863109
11
7.986602
21
237.595883
0
LINE
8
0
10
7.986602
20
237.595883
11
8.682324
21
233.393163
0
LINE
8
0
10
8.682324
20
233.393163
11
9.647569
21
229.266791
0
LINE
8
0
10
9.647569
20
229.266791
11
10.875518
21
225.228610
0
LINE
8
0
10
10.875518
20
225.228610
11
12.359353
21
221.290461
0
LINE
8
0
10
12.359353
20
221.290461
11
14.092255
21
217.464186
0
LINE
8
0
10
14.092255
20
217.464186
11
16.067406
21
213.761627
0
LINE
8
0
10
16.067406
20
213.761627
11
18.277988
21
210.194626
0
LINE
8
0
10
18.277988
20
210.194626
11
20.717181
21
206.775026
0
LINE
8
0
10
20.717181
20
206.775026
11
23.378168
21
203.514668
0
LINE
8
0
10
23.378168
20
203.514668
11
26.254130
21
200.425394
0
LINE
8
0
10
26.254130
20
200.425394
11
29.338248
21
197.519046
0
LINE
8
0
10
29.338248
20
197.519046
11
32.623704
21
194.807467
0
LINE
8
0
10
32.623704
20
194.807467
11
36.103679
21
192.302497
0
LINE
8
0
10
36.103679
20
192.302497
11
39.771356
21
190.015980
0
LINE
8
0
10
39.771356
20
190.015980
11
43.582991
21
187.978470
0
LINE
8
0
10
43.582991
20
187.978470
11
47.490280
21
186.212628
0
LINE
8
0
10
47.490280
20
186.212628
11
51.479556
21
184.718455
0
LINE
8
0
10
51.479556
20
184.718455
11
55.537157
21
183.495949
0
LINE
8
0
10
55.537157
20
183.495949
11
59.649416
21
182.545111
0
LINE
8
0
10
59.649416
20
182.545111
11
63.802670
21
181.865941
0
LINE
8
0
10
63.802670
20
181.865941
11
67.983252
21
181.458439
0
LINE
8
0
10
67.983252
20
181.458439
11
72.177500
21
181.322605
0
LINE
8
0
10
72.177500
20
181.322605
11
76.371748
21
181.458439
0
LINE
8
0
10
76.371748
20
181.458439
11
80.552330
21
181.865941
0
LINE
8
0
10
80.552330
20
181.865941
11
84.705584
21
182.545111
0
LINE
8
0
10
84.705584
20
182.545111
11
88.817843
21
183.495949
0
LINE
8
0
10
88.817843
20
183.495949
11
92.875444
21
184.718455
0
LINE
8
0
10
92.875444
20
184.718455
11
96.864720
21
186.212628
0
LINE
8
0
10
96.864720
20
186.212628
11
100.772009
21
187.978470
0
LINE
8
0
10
100.772009
20
187.978470
11
104.583644
21
190.015980
0
LINE
8
0
10
104.583644
20
190.015980
11
108.251321
21
192.302497
0
LINE
8
0
10
108.251321
20
192.302497
11
111.731296
21
194.807467
0
LINE
8
0
10
111.731296
20
194.807467
11
115.016752
21
197.519046
0
LINE
8
0
10
115.016752
20
197.519046
11
118.100870
21
200.425394
0
LINE
8
0
10
118.100870
20
200.425394
11
120.976832
21
203.514668
0
LINE
8
0
10
120.976832
20
203.514668
11
123.637819
21
206.775026
0
LINE
8
0
10
123.637819
20
206.775026
11
126.077012
21
210.194626
0
LINE
8
0
10
126.077012
20
210.194626
11
128.287594
21
213.761627
0
LINE
8
0
10
128.287594
20
213.761627
11
130.262745
21
217.464186
0
LINE
8
0
10
130.262745
20
217.464186
11
131.995647
21
221.290461
0
LINE
8
0
10
131.995647
20
221.290461
11
133.479482
21
225.228610
0
LINE
8
0
10
133.479482
20
225.228610
11
134.707431
21
229.266791
0
LINE
8
0
10
134.707431
20
229.266791
11
135.672676
21
233.393163
0
LINE
8
0
10
135.672676
20
233.393163
11
136.368398
21
237.595883
0
LINE
8
0
10
136.368398
20
237.595883
11
136.787779
21
241.863109
0
LINE
8
0
10
136.787779
20
241.863109
11
136.924000
21
246.183000
0
LINE
8
0
10
136.924000
20
246.183000
11
136.924000
21
246.183000
 0 
ENDSEC
 0 
EOF