M48
; DRILL file {KiCad 7.0.10} date Wed Mar 13 10:17:07 2024
; FORMAT={2:4/ absolute / inch / suppress leading zeros}
; #@! TF.CreationDate,2024-03-13T10:17:07-04:00
; #@! TF.GenerationSoftware,Kicad,Pcbnew,7.0.10
; #@! TF.FileFunction,MixedPlating,1,2
FMAT,2
INCH,TZ
; #@! TA.AperFunction,Plated,PTH,ViaDrill
T1C0.0157
; #@! TA.AperFunction,Plated,PTH,ComponentDrill
T2C0.0197
; #@! TA.AperFunction,Plated,PTH,ComponentDrill
T3C0.0315
; #@! TA.AperFunction,Plated,PTH,ComponentDrill
T4C0.0394
; #@! TA.AperFunction,Plated,PTH,ComponentDrill
T5C0.0433
; #@! TA.AperFunction,NonPlated,NPTH,ComponentDrill
T6C0.2559
%
G90
G05
T1
X24550Y-36800
X43000Y-24250
X43406Y-55000
X49700Y-25450
T2
X30512Y-41752
X30512Y-42539
X30512Y-43327
X30512Y-44114
X30512Y-44902
X30512Y-45689
X30512Y-46476
X30512Y-47264
X30512Y-48051
X30512Y-48839
X39173Y-41752
X39173Y-42539
X39173Y-43327
X39173Y-44114
X39173Y-44902
X39173Y-45689
X39173Y-46476
X39173Y-47264
X39173Y-48051
X39173Y-48839
T3
X41087Y-17772
X41087Y-18772
X41087Y-19772
X41087Y-20772
X41087Y-21772
X41087Y-22772
X41087Y-23772
X41087Y-24772
X41087Y-25772
X41087Y-26772
X41087Y-27772
X41087Y-28772
X41087Y-29772
X41087Y-30772
X41087Y-31772
X41087Y-32772
X41087Y-33772
X41087Y-34772
X41087Y-35772
X41087Y-36772
X41087Y-37772
X41087Y-38772
X41087Y-39772
X41087Y-40772
X47087Y-17772
X47087Y-18772
X47087Y-19772
X47087Y-20772
X47087Y-21772
X47087Y-22772
X47087Y-23772
X47087Y-24772
X47087Y-25772
X47087Y-26772
X47087Y-27772
X47087Y-28772
X47087Y-29772
X47087Y-30772
X47087Y-31772
X47087Y-32772
X47087Y-33772
X47087Y-34772
X47087Y-35772
X47087Y-36772
X47087Y-37772
X47087Y-38772
X47087Y-39772
X47087Y-40772
T4
X17701Y-43209
X18504Y-45673
X18504Y-46673
X18504Y-47673
X18701Y-43209
X19510Y-28708
X19510Y-29708
X19862Y-38606
X19862Y-39606
X21000Y-30900
X21000Y-31900
X21378Y-43067
X21378Y-44067
X21378Y-45067
X21378Y-46067
X21378Y-47067
X21378Y-48067
X23350Y-39500
X23350Y-40500
X31909Y-53819
X32909Y-53819
X33909Y-53819
X34909Y-53819
X35909Y-53819
X36909Y-53819
X37375Y-26087
X37375Y-27087
X37375Y-28087
X37375Y-29087
X41618Y-53630
X42618Y-53630
X43618Y-53630
X44618Y-53630
X45618Y-53630
X46618Y-53630
X47618Y-53630
X48618Y-53630
X54406Y-32805
X55406Y-32805
X56406Y-32805
X57406Y-32805
T5
X25205Y-38366
X26205Y-38366
X27205Y-38366
T6
X25372Y-25372
X25372Y-53368
X53366Y-53366
X53368Y-25372
M30
