%TF.GenerationSoftware,KiCad,Pcbnew,7.0.10*%
%TF.CreationDate,2024-03-13T10:09:45-04:00*%
%TF.ProjectId,MainPCB,4d61696e-5043-4422-9e6b-696361645f70,rev?*%
%TF.SameCoordinates,Original*%
%TF.FileFunction,Soldermask,Bot*%
%TF.FilePolarity,Negative*%
%FSLAX46Y46*%
G04 Gerber Fmt 4.6, Leading zero omitted, Abs format (unit mm)*
G04 Created by KiCad (PCBNEW 7.0.10) date 2024-03-13 10:09:45*
%MOMM*%
%LPD*%
G01*
G04 APERTURE LIST*
G04 Aperture macros list*
%AMRoundRect*
0 Rectangle with rounded corners*
0 $1 Rounding radius*
0 $2 $3 $4 $5 $6 $7 $8 $9 X,Y pos of 4 corners*
0 Add a 4 corners polygon primitive as box body*
4,1,4,$2,$3,$4,$5,$6,$7,$8,$9,$2,$3,0*
0 Add four circle primitives for the rounded corners*
1,1,$1+$1,$2,$3*
1,1,$1+$1,$4,$5*
1,1,$1+$1,$6,$7*
1,1,$1+$1,$8,$9*
0 Add four rect primitives between the rounded corners*
20,1,$1+$1,$2,$3,$4,$5,0*
20,1,$1+$1,$4,$5,$6,$7,0*
20,1,$1+$1,$6,$7,$8,$9,0*
20,1,$1+$1,$8,$9,$2,$3,0*%
G04 Aperture macros list end*
%ADD10R,1.700000X1.700000*%
%ADD11O,1.700000X1.700000*%
%ADD12C,1.512000*%
%ADD13C,6.500000*%
%ADD14R,1.905000X2.000000*%
%ADD15O,1.905000X2.000000*%
%ADD16RoundRect,0.102000X-0.504000X-0.504000X0.504000X-0.504000X0.504000X0.504000X-0.504000X0.504000X0*%
%ADD17C,1.212000*%
G04 APERTURE END LIST*
D10*
%TO.C,Buzzer1*%
X44960000Y-109750000D03*
D11*
X47500000Y-109750000D03*
%TD*%
D10*
%TO.C,ASPD-4525*%
X54300000Y-109390000D03*
D11*
X54300000Y-111930000D03*
X54300000Y-114470000D03*
X54300000Y-117010000D03*
X54300000Y-119550000D03*
X54300000Y-122090000D03*
%TD*%
D12*
%TO.C,TEENSY1*%
X104360000Y-47680000D03*
X104360000Y-50220000D03*
X104360000Y-52760000D03*
X104360000Y-55300000D03*
X104360000Y-80700000D03*
X119600000Y-50220000D03*
X104360000Y-57840000D03*
X104360000Y-60380000D03*
X104360000Y-62920000D03*
X104360000Y-65460000D03*
X104360000Y-68000000D03*
X104360000Y-70540000D03*
X104360000Y-73080000D03*
X104360000Y-75620000D03*
X104360000Y-78160000D03*
X119600000Y-78160000D03*
X119600000Y-75620000D03*
X119600000Y-73080000D03*
X119600000Y-70540000D03*
X119600000Y-68000000D03*
X119600000Y-65460000D03*
X119600000Y-62920000D03*
X119600000Y-60380000D03*
X119600000Y-57840000D03*
X119600000Y-55300000D03*
X119600000Y-52760000D03*
X104360000Y-83240000D03*
X104360000Y-85780000D03*
X104360000Y-88320000D03*
X104360000Y-90860000D03*
X104360000Y-93400000D03*
X104360000Y-95940000D03*
X104360000Y-98480000D03*
X104360000Y-101020000D03*
X104360000Y-103560000D03*
X119600000Y-103560000D03*
X119600000Y-101020000D03*
X119600000Y-98480000D03*
X119600000Y-95940000D03*
X119600000Y-93400000D03*
X119600000Y-90860000D03*
X119600000Y-88320000D03*
X119600000Y-85780000D03*
X119600000Y-83240000D03*
X104360000Y-45140000D03*
X119600000Y-80700000D03*
X119600000Y-47680000D03*
X119600000Y-45140000D03*
%TD*%
D13*
%TO.C,REF\u002A\u002A*%
X64444500Y-135555000D03*
%TD*%
D10*
%TO.C,Solenoid1*%
X59309000Y-100330000D03*
D11*
X59309000Y-102870000D03*
%TD*%
D13*
%TO.C,REF\u002A\u002A*%
X135550000Y-135550000D03*
%TD*%
D10*
%TO.C,GPS6MV2*%
X145810000Y-83325000D03*
D11*
X143270000Y-83325000D03*
X140730000Y-83325000D03*
X138190000Y-83325000D03*
%TD*%
D10*
%TO.C,Servo1*%
X47000000Y-116010000D03*
D11*
X47000000Y-118550000D03*
X47000000Y-121090000D03*
%TD*%
D10*
%TO.C,BMP390*%
X123490000Y-136220000D03*
D11*
X120950000Y-136220000D03*
X118410000Y-136220000D03*
X115870000Y-136220000D03*
X113330000Y-136220000D03*
X110790000Y-136220000D03*
X108250000Y-136220000D03*
X105710000Y-136220000D03*
%TD*%
D13*
%TO.C,REF\u002A\u002A*%
X64444500Y-64444500D03*
%TD*%
D10*
%TO.C,LSM6DSOX+LIS3MDL1*%
X93750000Y-136700000D03*
D11*
X91210000Y-136700000D03*
X88670000Y-136700000D03*
X86130000Y-136700000D03*
X83590000Y-136700000D03*
X81050000Y-136700000D03*
%TD*%
D14*
%TO.C,Q1*%
X69100000Y-97450000D03*
D15*
X66560000Y-97450000D03*
X64020000Y-97450000D03*
%TD*%
D13*
%TO.C,REF\u002A\u002A*%
X135555000Y-64444500D03*
%TD*%
D16*
%TO.C,XBEE1*%
X77500000Y-106050000D03*
D17*
X77500000Y-108050000D03*
X77500000Y-110050000D03*
X77500000Y-112050000D03*
X77500000Y-114050000D03*
X77500000Y-116050000D03*
X77500000Y-118050000D03*
X77500000Y-120050000D03*
X77500000Y-122050000D03*
X77500000Y-124050000D03*
X99500000Y-124050000D03*
X99500000Y-122050000D03*
X99500000Y-120050000D03*
X99500000Y-118050000D03*
X99500000Y-116050000D03*
X99500000Y-114050000D03*
X99500000Y-112050000D03*
X99500000Y-110050000D03*
X99500000Y-108050000D03*
X99500000Y-106050000D03*
%TD*%
D10*
%TO.C,SW1*%
X53340000Y-78486000D03*
D11*
X53340000Y-81026000D03*
%TD*%
D10*
%TO.C,D1*%
X50450000Y-100600000D03*
D11*
X50450000Y-98060000D03*
%TD*%
D10*
%TO.C,Power1*%
X49555000Y-75458000D03*
D11*
X49555000Y-72918000D03*
%TD*%
D10*
%TO.C,SEN291*%
X94932500Y-73880500D03*
D11*
X94932500Y-71340500D03*
X94932500Y-68800500D03*
X94932500Y-66260500D03*
%TD*%
M02*
