%TF.GenerationSoftware,KiCad,Pcbnew,7.0.10*%
%TF.CreationDate,2024-03-13T10:09:45-04:00*%
%TF.ProjectId,MainPCB,4d61696e-5043-4422-9e6b-696361645f70,rev?*%
%TF.SameCoordinates,Original*%
%TF.FileFunction,Copper,L2,Bot*%
%TF.FilePolarity,Positive*%
%FSLAX46Y46*%
G04 Gerber Fmt 4.6, Leading zero omitted, Abs format (unit mm)*
G04 Created by KiCad (PCBNEW 7.0.10) date 2024-03-13 10:09:45*
%MOMM*%
%LPD*%
G01*
G04 APERTURE LIST*
%TA.AperFunction,ComponentPad*%
%ADD10R,1.700000X1.700000*%
%TD*%
%TA.AperFunction,ComponentPad*%
%ADD11O,1.700000X1.700000*%
%TD*%
%TA.AperFunction,ComponentPad*%
%ADD12C,1.308000*%
%TD*%
%TA.AperFunction,ComponentPad*%
%ADD13R,1.905000X2.000000*%
%TD*%
%TA.AperFunction,ComponentPad*%
%ADD14O,1.905000X2.000000*%
%TD*%
%TA.AperFunction,ComponentPad*%
%ADD15R,1.008000X1.008000*%
%TD*%
%TA.AperFunction,ComponentPad*%
%ADD16C,1.008000*%
%TD*%
%TA.AperFunction,ViaPad*%
%ADD17C,0.800000*%
%TD*%
%TA.AperFunction,Conductor*%
%ADD18C,0.250000*%
%TD*%
G04 APERTURE END LIST*
D10*
%TO.P,Buzzer1,1,Pin_1*%
%TO.N,Net-(Buzzer1-Pin_1)*%
X44960000Y-109750000D03*
D11*
%TO.P,Buzzer1,2,Pin_2*%
%TO.N,Net-(Buzzer1-Pin_2)*%
X47500000Y-109750000D03*
%TD*%
D10*
%TO.P,ASPD-4525,1,GND*%
%TO.N,GND*%
X54300000Y-109390000D03*
D11*
%TO.P,ASPD-4525,2,5V*%
%TO.N,+5V*%
X54300000Y-111930000D03*
%TO.P,ASPD-4525,3,SCL*%
%TO.N,Net-(ASPD-4525-SCL)*%
X54300000Y-114470000D03*
%TO.P,ASPD-4525,4,SDA*%
%TO.N,Net-(ASPD-4525-SDA)*%
X54300000Y-117010000D03*
%TO.P,ASPD-4525,5,GND*%
%TO.N,GND*%
X54300000Y-119550000D03*
%TO.P,ASPD-4525,6,3V3*%
%TO.N,unconnected-(ASPD-4525-3V3-Pad6)*%
X54300000Y-122090000D03*
%TD*%
D12*
%TO.P,TEENSY1,0,RX1*%
%TO.N,Net-(GPS6MV2-TX)*%
X104360000Y-47680000D03*
%TO.P,TEENSY1,1,TX1*%
%TO.N,Net-(GPS6MV2-RX)*%
X104360000Y-50220000D03*
%TO.P,TEENSY1,2,OUT2*%
%TO.N,Net-(TEENSY1-OUT2)*%
X104360000Y-52760000D03*
%TO.P,TEENSY1,3,LRCLK2*%
%TO.N,Net-(Buzzer1-Pin_2)*%
X104360000Y-55300000D03*
%TO.P,TEENSY1,3.3V_1,3.3V*%
%TO.N,Net-(GPS6MV2-Vcc)*%
X104360000Y-80700000D03*
%TO.P,TEENSY1,3.3V_2,3.3V*%
X119600000Y-50220000D03*
%TO.P,TEENSY1,4,BCLK2*%
%TO.N,unconnected-(TEENSY1-BCLK2-Pad4)*%
X104360000Y-57840000D03*
%TO.P,TEENSY1,5,IN2*%
%TO.N,unconnected-(TEENSY1-IN2-Pad5)*%
X104360000Y-60380000D03*
%TO.P,TEENSY1,6,OUT1D*%
%TO.N,Net-(Servo1-Pin_3)*%
X104360000Y-62920000D03*
%TO.P,TEENSY1,7,RX2*%
%TO.N,Net-(TEENSY1-RX2)*%
X104360000Y-65460000D03*
%TO.P,TEENSY1,8,TX2*%
%TO.N,Net-(TEENSY1-TX2)*%
X104360000Y-68000000D03*
%TO.P,TEENSY1,9,OUT1C*%
%TO.N,unconnected-(TEENSY1-OUT1C-Pad9)*%
X104360000Y-70540000D03*
%TO.P,TEENSY1,10,CS1*%
%TO.N,unconnected-(TEENSY1-CS1-Pad10)*%
X104360000Y-73080000D03*
%TO.P,TEENSY1,11,MOSI*%
%TO.N,unconnected-(TEENSY1-MOSI-Pad11)*%
X104360000Y-75620000D03*
%TO.P,TEENSY1,12,MISO*%
%TO.N,unconnected-(TEENSY1-MISO-Pad12)*%
X104360000Y-78160000D03*
%TO.P,TEENSY1,13,SCK*%
%TO.N,unconnected-(TEENSY1-SCK-Pad13)*%
X119600000Y-78160000D03*
%TO.P,TEENSY1,14,A0*%
%TO.N,unconnected-(TEENSY1-A0-Pad14)*%
X119600000Y-75620000D03*
%TO.P,TEENSY1,15,A1*%
%TO.N,unconnected-(TEENSY1-A1-Pad15)*%
X119600000Y-73080000D03*
%TO.P,TEENSY1,16,A2*%
%TO.N,unconnected-(TEENSY1-A2-Pad16)*%
X119600000Y-70540000D03*
%TO.P,TEENSY1,17,A3*%
%TO.N,unconnected-(TEENSY1-A3-Pad17)*%
X119600000Y-68000000D03*
%TO.P,TEENSY1,18,A4*%
%TO.N,Net-(ASPD-4525-SDA)*%
X119600000Y-65460000D03*
%TO.P,TEENSY1,19,A5*%
%TO.N,Net-(ASPD-4525-SCL)*%
X119600000Y-62920000D03*
%TO.P,TEENSY1,20,A6*%
%TO.N,unconnected-(TEENSY1-A6-Pad20)*%
X119600000Y-60380000D03*
%TO.P,TEENSY1,21,A7*%
%TO.N,unconnected-(TEENSY1-A7-Pad21)*%
X119600000Y-57840000D03*
%TO.P,TEENSY1,22,A8*%
%TO.N,unconnected-(TEENSY1-A8-Pad22)*%
X119600000Y-55300000D03*
%TO.P,TEENSY1,23,A9*%
%TO.N,unconnected-(TEENSY1-A9-Pad23)*%
X119600000Y-52760000D03*
%TO.P,TEENSY1,24,A10*%
%TO.N,unconnected-(TEENSY1-A10-Pad24)*%
X104360000Y-83240000D03*
%TO.P,TEENSY1,25,A11*%
%TO.N,unconnected-(TEENSY1-A11-Pad25)*%
X104360000Y-85780000D03*
%TO.P,TEENSY1,26,A12*%
%TO.N,unconnected-(TEENSY1-A12-Pad26)*%
X104360000Y-88320000D03*
%TO.P,TEENSY1,27,A13*%
%TO.N,unconnected-(TEENSY1-A13-Pad27)*%
X104360000Y-90860000D03*
%TO.P,TEENSY1,28,RX7*%
%TO.N,unconnected-(TEENSY1-RX7-Pad28)*%
X104360000Y-93400000D03*
%TO.P,TEENSY1,29,TX7*%
%TO.N,unconnected-(TEENSY1-TX7-Pad29)*%
X104360000Y-95940000D03*
%TO.P,TEENSY1,30,CRX3*%
%TO.N,unconnected-(TEENSY1-CRX3-Pad30)*%
X104360000Y-98480000D03*
%TO.P,TEENSY1,31,CTX3*%
%TO.N,unconnected-(TEENSY1-CTX3-Pad31)*%
X104360000Y-101020000D03*
%TO.P,TEENSY1,32,OUT1B*%
%TO.N,unconnected-(TEENSY1-OUT1B-Pad32)*%
X104360000Y-103560000D03*
%TO.P,TEENSY1,33,MCLK2*%
%TO.N,unconnected-(TEENSY1-MCLK2-Pad33)*%
X119600000Y-103560000D03*
%TO.P,TEENSY1,34,RX8*%
%TO.N,unconnected-(TEENSY1-RX8-Pad34)*%
X119600000Y-101020000D03*
%TO.P,TEENSY1,35,TX8*%
%TO.N,unconnected-(TEENSY1-TX8-Pad35)*%
X119600000Y-98480000D03*
%TO.P,TEENSY1,36,CS2*%
%TO.N,unconnected-(TEENSY1-CS2-Pad36)*%
X119600000Y-95940000D03*
%TO.P,TEENSY1,37,CS3*%
%TO.N,unconnected-(TEENSY1-CS3-Pad37)*%
X119600000Y-93400000D03*
%TO.P,TEENSY1,38,A14*%
%TO.N,unconnected-(TEENSY1-A14-Pad38)*%
X119600000Y-90860000D03*
%TO.P,TEENSY1,39,A15*%
%TO.N,unconnected-(TEENSY1-A15-Pad39)*%
X119600000Y-88320000D03*
%TO.P,TEENSY1,40,A16*%
%TO.N,unconnected-(TEENSY1-A16-Pad40)*%
X119600000Y-85780000D03*
%TO.P,TEENSY1,41,A17*%
%TO.N,unconnected-(TEENSY1-A17-Pad41)*%
X119600000Y-83240000D03*
%TO.P,TEENSY1,GND1,GND*%
%TO.N,GND*%
X104360000Y-45140000D03*
%TO.P,TEENSY1,GND2,GND*%
X119600000Y-80700000D03*
%TO.P,TEENSY1,GND3,GND*%
X119600000Y-47680000D03*
%TO.P,TEENSY1,VIN,VIN*%
%TO.N,+5V*%
X119600000Y-45140000D03*
%TD*%
D10*
%TO.P,Solenoid1,1,Pin_1*%
%TO.N,+5V*%
X59309000Y-100330000D03*
D11*
%TO.P,Solenoid1,2,Pin_2*%
%TO.N,Net-(Q1-D)*%
X59309000Y-102870000D03*
%TD*%
D10*
%TO.P,GPS6MV2,1,Vcc*%
%TO.N,Net-(GPS6MV2-Vcc)*%
X145810000Y-83325000D03*
D11*
%TO.P,GPS6MV2,2,RX*%
%TO.N,Net-(GPS6MV2-RX)*%
X143270000Y-83325000D03*
%TO.P,GPS6MV2,3,TX*%
%TO.N,Net-(GPS6MV2-TX)*%
X140730000Y-83325000D03*
%TO.P,GPS6MV2,4,GND*%
%TO.N,GND*%
X138190000Y-83325000D03*
%TD*%
D10*
%TO.P,Servo1,1,Pin_1*%
%TO.N,+5V*%
X47000000Y-116010000D03*
D11*
%TO.P,Servo1,2,Pin_2*%
%TO.N,GND*%
X47000000Y-118550000D03*
%TO.P,Servo1,3,Pin_3*%
%TO.N,Net-(Servo1-Pin_3)*%
X47000000Y-121090000D03*
%TD*%
D10*
%TO.P,BMP390,1,VIN*%
%TO.N,+5V*%
X123490000Y-136220000D03*
D11*
%TO.P,BMP390,2,3Vo*%
%TO.N,unconnected-(BMP390-3Vo-Pad2)*%
X120950000Y-136220000D03*
%TO.P,BMP390,3,GND*%
%TO.N,GND*%
X118410000Y-136220000D03*
%TO.P,BMP390,4,SCL*%
%TO.N,Net-(ASPD-4525-SCL)*%
X115870000Y-136220000D03*
%TO.P,BMP390,5,SDO*%
%TO.N,unconnected-(BMP390-SDO-Pad5)*%
X113330000Y-136220000D03*
%TO.P,BMP390,6,SDA*%
%TO.N,Net-(ASPD-4525-SDA)*%
X110790000Y-136220000D03*
%TO.P,BMP390,7,CS*%
%TO.N,unconnected-(BMP390-CS-Pad7)*%
X108250000Y-136220000D03*
%TO.P,BMP390,8,INT*%
%TO.N,unconnected-(BMP390-INT-Pad8)*%
X105710000Y-136220000D03*
%TD*%
D10*
%TO.P,LSM6DSOX+LIS3MDL1,1,Vin*%
%TO.N,+5V*%
X93750000Y-136700000D03*
D11*
%TO.P,LSM6DSOX+LIS3MDL1,2,3vo*%
%TO.N,unconnected-(LSM6DSOX+LIS3MDL1-3vo-Pad2)*%
X91210000Y-136700000D03*
%TO.P,LSM6DSOX+LIS3MDL1,3,GND*%
%TO.N,GND*%
X88670000Y-136700000D03*
%TO.P,LSM6DSOX+LIS3MDL1,4,SCL*%
%TO.N,Net-(ASPD-4525-SCL)*%
X86130000Y-136700000D03*
%TO.P,LSM6DSOX+LIS3MDL1,5,SDA*%
%TO.N,Net-(ASPD-4525-SDA)*%
X83590000Y-136700000D03*
%TO.P,LSM6DSOX+LIS3MDL1,6,INT2*%
%TO.N,unconnected-(LSM6DSOX+LIS3MDL1-INT2-Pad6)*%
X81050000Y-136700000D03*
%TD*%
D13*
%TO.P,Q1,1,D*%
%TO.N,Net-(Q1-D)*%
X69100000Y-97450000D03*
D14*
%TO.P,Q1,2,G*%
%TO.N,Net-(Q1-G)*%
X66560000Y-97450000D03*
%TO.P,Q1,3,S*%
%TO.N,GND*%
X64020000Y-97450000D03*
%TD*%
D15*
%TO.P,XBEE1,1,1*%
%TO.N,Net-(GPS6MV2-Vcc)*%
X77500000Y-106050000D03*
D16*
%TO.P,XBEE1,2,2*%
%TO.N,Net-(TEENSY1-RX2)*%
X77500000Y-108050000D03*
%TO.P,XBEE1,3,3*%
%TO.N,Net-(TEENSY1-TX2)*%
X77500000Y-110050000D03*
%TO.P,XBEE1,4,4*%
%TO.N,unconnected-(XBEE1-Pad4)*%
X77500000Y-112050000D03*
%TO.P,XBEE1,5,5*%
%TO.N,unconnected-(XBEE1-Pad5)*%
X77500000Y-114050000D03*
%TO.P,XBEE1,6,6*%
%TO.N,Net-(GPS6MV2-Vcc)*%
X77500000Y-116050000D03*
%TO.P,XBEE1,7,7*%
%TO.N,unconnected-(XBEE1-Pad7)*%
X77500000Y-118050000D03*
%TO.P,XBEE1,8,8*%
%TO.N,unconnected-(XBEE1-Pad8)*%
X77500000Y-120050000D03*
%TO.P,XBEE1,9,9*%
%TO.N,unconnected-(XBEE1-Pad9)*%
X77500000Y-122050000D03*
%TO.P,XBEE1,10,10*%
%TO.N,GND*%
X77500000Y-124050000D03*
%TO.P,XBEE1,11,11*%
%TO.N,unconnected-(XBEE1-Pad11)*%
X99500000Y-124050000D03*
%TO.P,XBEE1,12,12*%
%TO.N,unconnected-(XBEE1-Pad12)*%
X99500000Y-122050000D03*
%TO.P,XBEE1,13,13*%
%TO.N,unconnected-(XBEE1-Pad13)*%
X99500000Y-120050000D03*
%TO.P,XBEE1,14,14*%
%TO.N,unconnected-(XBEE1-Pad14)*%
X99500000Y-118050000D03*
%TO.P,XBEE1,15,15*%
%TO.N,unconnected-(XBEE1-Pad15)*%
X99500000Y-116050000D03*
%TO.P,XBEE1,16,16*%
%TO.N,unconnected-(XBEE1-Pad16)*%
X99500000Y-114050000D03*
%TO.P,XBEE1,17,17*%
%TO.N,unconnected-(XBEE1-Pad17)*%
X99500000Y-112050000D03*
%TO.P,XBEE1,18,18*%
%TO.N,unconnected-(XBEE1-Pad18)*%
X99500000Y-110050000D03*
%TO.P,XBEE1,19,19*%
%TO.N,unconnected-(XBEE1-Pad19)*%
X99500000Y-108050000D03*
%TO.P,XBEE1,20,20*%
%TO.N,unconnected-(XBEE1-Pad20)*%
X99500000Y-106050000D03*
%TD*%
D10*
%TO.P,SW1,1*%
%TO.N,Net-(Power1-Pin_1)*%
X53340000Y-78486000D03*
D11*
%TO.P,SW1,2*%
%TO.N,Net-(U1-EN)*%
X53340000Y-81026000D03*
%TD*%
D10*
%TO.P,D1,1,K*%
%TO.N,GND*%
X50450000Y-100600000D03*
D11*
%TO.P,D1,2,A*%
%TO.N,Net-(D1-A)*%
X50450000Y-98060000D03*
%TD*%
D10*
%TO.P,Power1,1,Pin_1*%
%TO.N,Net-(Power1-Pin_1)*%
X49555000Y-75458000D03*
D11*
%TO.P,Power1,2,Pin_2*%
%TO.N,GND*%
X49555000Y-72918000D03*
%TD*%
D10*
%TO.P,SEN291,1,Vcc*%
%TO.N,+5V*%
X94932500Y-73880500D03*
D11*
%TO.P,SEN291,2,GND*%
%TO.N,GND*%
X94932500Y-71340500D03*
%TO.P,SEN291,3,SCL*%
%TO.N,Net-(ASPD-4525-SCL)*%
X94932500Y-68800500D03*
%TO.P,SEN291,4,SDA*%
%TO.N,Net-(ASPD-4525-SDA)*%
X94932500Y-66260500D03*
%TD*%
D17*
%TO.N,Net-(ASPD-4525-SCL)*%
X110250000Y-139700000D03*
%TO.N,Net-(ASPD-4525-SDA)*%
X109220000Y-61595000D03*
%TO.N,+5V*%
X62357000Y-93472000D03*
%TO.N,GND*%
X126238000Y-64643000D03*
%TD*%
D18*
%TO.N,Net-(ASPD-4525-SCL)*%
X86130000Y-136700000D02*
X84130000Y-134700000D01*
X110250000Y-139700000D02*
X112390000Y-139700000D01*
X115870000Y-136220000D02*
X123150000Y-128940000D01*
X112390000Y-139700000D02*
X115870000Y-136220000D01*
X123150000Y-66470000D02*
X119600000Y-62920000D01*
X55570000Y-114470000D02*
X54300000Y-114470000D01*
X123150000Y-128940000D02*
X123150000Y-66470000D01*
X84130000Y-134700000D02*
X75800000Y-134700000D01*
X75800000Y-134700000D02*
X55570000Y-114470000D01*
%TO.N,Net-(ASPD-4525-SDA)*%
X83590000Y-136700000D02*
X84765000Y-137875000D01*
X109135000Y-137875000D02*
X110790000Y-136220000D01*
X109220000Y-61595000D02*
X113085000Y-65460000D01*
X82415000Y-137875000D02*
X83590000Y-136700000D01*
X113085000Y-65460000D02*
X119600000Y-65460000D01*
X122000000Y-67860000D02*
X119600000Y-65460000D01*
X56110000Y-117010000D02*
X76975000Y-137875000D01*
X84765000Y-137875000D02*
X109135000Y-137875000D01*
X54300000Y-117010000D02*
X56110000Y-117010000D01*
X122000000Y-125010000D02*
X122000000Y-67860000D01*
X76975000Y-137875000D02*
X82415000Y-137875000D01*
X110790000Y-136220000D02*
X122000000Y-125010000D01*
%TO.N,Net-(GPS6MV2-RX)*%
X140082000Y-80137000D02*
X139192000Y-80137000D01*
X143270000Y-83325000D02*
X140082000Y-80137000D01*
X105680000Y-48900000D02*
X104360000Y-50220000D01*
X143270000Y-83325000D02*
X142634000Y-83325000D01*
X139192000Y-80137000D02*
X124841000Y-65786000D01*
X119766000Y-48900000D02*
X105680000Y-48900000D01*
X124841000Y-65786000D02*
X124841000Y-53975000D01*
X124841000Y-53975000D02*
X119766000Y-48900000D01*
%TO.N,Net-(GPS6MV2-TX)*%
X123825000Y-54737000D02*
X120638000Y-51550000D01*
X140730000Y-83325000D02*
X123825000Y-66420000D01*
X103381000Y-50625516D02*
X103381000Y-48659000D01*
X104305484Y-51550000D02*
X103381000Y-50625516D01*
X123825000Y-66420000D02*
X123825000Y-54737000D01*
X120638000Y-51550000D02*
X104305484Y-51550000D01*
X103381000Y-48659000D02*
X104360000Y-47680000D01*
%TO.N,Net-(GPS6MV2-Vcc)*%
X100148000Y-80700000D02*
X104360000Y-80700000D01*
X77500000Y-106050000D02*
X77500000Y-103348000D01*
X77500000Y-103348000D02*
X100148000Y-80700000D01*
%TO.N,+5V*%
X119600000Y-45140000D02*
X117894000Y-43434000D01*
X90550000Y-133500000D02*
X93750000Y-136700000D01*
X59309000Y-100330000D02*
X59309000Y-96520000D01*
X81915000Y-73914000D02*
X62357000Y-93472000D01*
X102489000Y-43434000D02*
X92710000Y-53213000D01*
X75870000Y-133500000D02*
X90550000Y-133500000D01*
X92710000Y-71658000D02*
X94932500Y-73880500D01*
X94932500Y-73880500D02*
X94899000Y-73914000D01*
X54300000Y-111930000D02*
X75870000Y-133500000D01*
X92710000Y-53213000D02*
X92710000Y-71658000D01*
X117894000Y-43434000D02*
X102489000Y-43434000D01*
X94899000Y-73914000D02*
X81915000Y-73914000D01*
X59309000Y-96520000D02*
X62357000Y-93472000D01*
%TO.N,GND*%
X126238000Y-64643000D02*
X126238000Y-54318000D01*
X97663000Y-68610000D02*
X97663000Y-51837000D01*
X126238000Y-54318000D02*
X119600000Y-47680000D01*
X53125000Y-118375000D02*
X53125000Y-110565000D01*
X94932500Y-71340500D02*
X97663000Y-68610000D01*
X54300000Y-119550000D02*
X53125000Y-118375000D01*
X97663000Y-51837000D02*
X104360000Y-45140000D01*
X53125000Y-110565000D02*
X54300000Y-109390000D01*
%TO.N,Net-(Buzzer1-Pin_2)*%
X98298000Y-78152000D02*
X98298000Y-61362000D01*
X70700000Y-105750000D02*
X98298000Y-78152000D01*
X98298000Y-61362000D02*
X104360000Y-55300000D01*
X47500000Y-109750000D02*
X51500000Y-105750000D01*
X51500000Y-105750000D02*
X70700000Y-105750000D01*
%TO.N,Net-(Servo1-Pin_3)*%
X99060000Y-79790000D02*
X71950000Y-106900000D01*
X51050000Y-117098000D02*
X47058000Y-121090000D01*
X99060000Y-68220000D02*
X99060000Y-79790000D01*
X51050000Y-109986000D02*
X51050000Y-117098000D01*
X104360000Y-62920000D02*
X99060000Y-68220000D01*
X71950000Y-106900000D02*
X54136000Y-106900000D01*
X47058000Y-121090000D02*
X47000000Y-121090000D01*
X54136000Y-106900000D02*
X51050000Y-109986000D01*
%TD*%
M02*
