%TF.GenerationSoftware,KiCad,Pcbnew,7.0.10*%
%TF.CreationDate,2024-03-10T23:32:19-04:00*%
%TF.ProjectId,MainPCB,4d61696e-5043-4422-9e6b-696361645f70,rev?*%
%TF.SameCoordinates,Original*%
%TF.FileFunction,Soldermask,Top*%
%TF.FilePolarity,Negative*%
%FSLAX46Y46*%
G04 Gerber Fmt 4.6, Leading zero omitted, Abs format (unit mm)*
G04 Created by KiCad (PCBNEW 7.0.10) date 2024-03-10 23:32:19*
%MOMM*%
%LPD*%
G01*
G04 APERTURE LIST*
G04 Aperture macros list*
%AMRoundRect*
0 Rectangle with rounded corners*
0 $1 Rounding radius*
0 $2 $3 $4 $5 $6 $7 $8 $9 X,Y pos of 4 corners*
0 Add a 4 corners polygon primitive as box body*
4,1,4,$2,$3,$4,$5,$6,$7,$8,$9,$2,$3,0*
0 Add four circle primitives for the rounded corners*
1,1,$1+$1,$2,$3*
1,1,$1+$1,$4,$5*
1,1,$1+$1,$6,$7*
1,1,$1+$1,$8,$9*
0 Add four rect primitives between the rounded corners*
20,1,$1+$1,$2,$3,$4,$5,0*
20,1,$1+$1,$4,$5,$6,$7,0*
20,1,$1+$1,$6,$7,$8,$9,0*
20,1,$1+$1,$8,$9,$2,$3,0*%
G04 Aperture macros list end*
%ADD10RoundRect,0.237500X-0.237500X0.300000X-0.237500X-0.300000X0.237500X-0.300000X0.237500X0.300000X0*%
%ADD11RoundRect,0.155000X0.212500X0.155000X-0.212500X0.155000X-0.212500X-0.155000X0.212500X-0.155000X0*%
%ADD12RoundRect,0.250000X0.650000X-0.412500X0.650000X0.412500X-0.650000X0.412500X-0.650000X-0.412500X0*%
%ADD13R,2.400000X1.500000*%
%ADD14R,1.700000X1.700000*%
%ADD15O,1.700000X1.700000*%
%ADD16C,1.512000*%
%ADD17C,6.500000*%
%ADD18RoundRect,0.250000X0.450000X-0.262500X0.450000X0.262500X-0.450000X0.262500X-0.450000X-0.262500X0*%
%ADD19RoundRect,0.250000X0.262500X0.450000X-0.262500X0.450000X-0.262500X-0.450000X0.262500X-0.450000X0*%
%ADD20RoundRect,0.250000X-0.262500X-0.450000X0.262500X-0.450000X0.262500X0.450000X-0.262500X0.450000X0*%
%ADD21R,1.905000X2.000000*%
%ADD22O,1.905000X2.000000*%
%ADD23C,1.212000*%
%ADD24RoundRect,0.102000X-0.504000X-0.504000X0.504000X-0.504000X0.504000X0.504000X-0.504000X0.504000X0*%
%ADD25RoundRect,0.150000X0.512500X0.150000X-0.512500X0.150000X-0.512500X-0.150000X0.512500X-0.150000X0*%
G04 APERTURE END LIST*
D10*
%TO.C,C4*%
X56388000Y-84582000D03*
X56388000Y-86307000D03*
%TD*%
%TO.C,C3*%
X58039000Y-84582000D03*
X58039000Y-86307000D03*
%TD*%
D11*
%TO.C,C2*%
X51943000Y-87757000D03*
X50808000Y-87757000D03*
%TD*%
D12*
%TO.C,C1*%
X52197000Y-82461500D03*
X52197000Y-79336500D03*
%TD*%
D13*
%TO.C,L1*%
X46609000Y-85725000D03*
X46609000Y-91225000D03*
%TD*%
D14*
%TO.C,Buzzer1*%
X44960000Y-109750000D03*
D15*
X47500000Y-109750000D03*
%TD*%
%TO.C,ASPD-4525*%
X54300000Y-122090000D03*
X54300000Y-119550000D03*
X54300000Y-117010000D03*
X54300000Y-114470000D03*
X54300000Y-111930000D03*
D14*
X54300000Y-109390000D03*
%TD*%
D16*
%TO.C,TEENSY1*%
X104360000Y-47680000D03*
X104360000Y-50220000D03*
X104360000Y-52760000D03*
X104360000Y-55300000D03*
X104360000Y-80700000D03*
X119600000Y-50220000D03*
X104360000Y-57840000D03*
X104360000Y-60380000D03*
X104360000Y-62920000D03*
X104360000Y-65460000D03*
X104360000Y-68000000D03*
X104360000Y-70540000D03*
X104360000Y-73080000D03*
X104360000Y-75620000D03*
X104360000Y-78160000D03*
X119600000Y-78160000D03*
X119600000Y-75620000D03*
X119600000Y-73080000D03*
X119600000Y-70540000D03*
X119600000Y-68000000D03*
X119600000Y-65460000D03*
X119600000Y-62920000D03*
X119600000Y-60380000D03*
X119600000Y-57840000D03*
X119600000Y-55300000D03*
X119600000Y-52760000D03*
X104360000Y-83240000D03*
X104360000Y-85780000D03*
X104360000Y-88320000D03*
X104360000Y-90860000D03*
X104360000Y-93400000D03*
X104360000Y-95940000D03*
X104360000Y-98480000D03*
X104360000Y-101020000D03*
X104360000Y-103560000D03*
X119600000Y-103560000D03*
X119600000Y-101020000D03*
X119600000Y-98480000D03*
X119600000Y-95940000D03*
X119600000Y-93400000D03*
X119600000Y-90860000D03*
X119600000Y-88320000D03*
X119600000Y-85780000D03*
X119600000Y-83240000D03*
X104360000Y-45140000D03*
X119600000Y-80700000D03*
X119600000Y-47680000D03*
X119600000Y-45140000D03*
%TD*%
D17*
%TO.C,REF\u002A\u002A*%
X64444500Y-135555000D03*
%TD*%
D15*
%TO.C,Solenoid1*%
X59309000Y-102870000D03*
D14*
X59309000Y-100330000D03*
%TD*%
D18*
%TO.C,R1*%
X51816000Y-94003500D03*
X51816000Y-92178500D03*
%TD*%
D17*
%TO.C,REF\u002A\u002A*%
X135550000Y-135550000D03*
%TD*%
D19*
%TO.C,R2*%
X47879000Y-105537000D03*
X46054000Y-105537000D03*
%TD*%
D14*
%TO.C,GPS6MV2*%
X145810000Y-83325000D03*
D15*
X143270000Y-83325000D03*
X140730000Y-83325000D03*
X138190000Y-83325000D03*
%TD*%
D14*
%TO.C,Servo1*%
X47000000Y-116010000D03*
D15*
X47000000Y-118550000D03*
X47000000Y-121090000D03*
%TD*%
D14*
%TO.C,BMP390*%
X123490000Y-136220000D03*
D15*
X120950000Y-136220000D03*
X118410000Y-136220000D03*
X115870000Y-136220000D03*
X113330000Y-136220000D03*
X110790000Y-136220000D03*
X108250000Y-136220000D03*
X105710000Y-136220000D03*
%TD*%
D17*
%TO.C,REF\u002A\u002A*%
X64444500Y-64444500D03*
%TD*%
D20*
%TO.C,R3*%
X68152000Y-94107000D03*
X69977000Y-94107000D03*
%TD*%
D14*
%TO.C,LSM6DSOX+LIS3MDL1*%
X93750000Y-136700000D03*
D15*
X91210000Y-136700000D03*
X88670000Y-136700000D03*
X86130000Y-136700000D03*
X83590000Y-136700000D03*
X81050000Y-136700000D03*
%TD*%
D21*
%TO.C,Q1*%
X69100000Y-97450000D03*
D22*
X66560000Y-97450000D03*
X64020000Y-97450000D03*
%TD*%
D17*
%TO.C,REF\u002A\u002A*%
X135555000Y-64444500D03*
%TD*%
D23*
%TO.C,XBEE1*%
X99500000Y-106050000D03*
X99500000Y-108050000D03*
X99500000Y-110050000D03*
X99500000Y-112050000D03*
X99500000Y-114050000D03*
X99500000Y-116050000D03*
X99500000Y-118050000D03*
X99500000Y-120050000D03*
X99500000Y-122050000D03*
X99500000Y-124050000D03*
X77500000Y-124050000D03*
X77500000Y-122050000D03*
X77500000Y-120050000D03*
X77500000Y-118050000D03*
X77500000Y-116050000D03*
X77500000Y-114050000D03*
X77500000Y-112050000D03*
X77500000Y-110050000D03*
X77500000Y-108050000D03*
D24*
X77500000Y-106050000D03*
%TD*%
D14*
%TO.C,SW1*%
X48285000Y-79522000D03*
D15*
X48285000Y-82062000D03*
%TD*%
D25*
%TO.C,U1*%
X54223500Y-86421000D03*
X54223500Y-85471000D03*
X54223500Y-84521000D03*
X51948500Y-84521000D03*
X51948500Y-85471000D03*
X51948500Y-86421000D03*
%TD*%
D14*
%TO.C,D1*%
X50450000Y-100600000D03*
D15*
X50450000Y-98060000D03*
%TD*%
D14*
%TO.C,Power1*%
X49555000Y-75458000D03*
D15*
X49555000Y-72918000D03*
%TD*%
D14*
%TO.C,SEN291*%
X94932500Y-73880500D03*
D15*
X94932500Y-71340500D03*
X94932500Y-68800500D03*
X94932500Y-66260500D03*
%TD*%
M02*
