%TF.GenerationSoftware,KiCad,Pcbnew,7.0.10*%
%TF.CreationDate,2024-03-10T23:32:19-04:00*%
%TF.ProjectId,MainPCB,4d61696e-5043-4422-9e6b-696361645f70,rev?*%
%TF.SameCoordinates,Original*%
%TF.FileFunction,Copper,L1,Top*%
%TF.FilePolarity,Positive*%
%FSLAX46Y46*%
G04 Gerber Fmt 4.6, Leading zero omitted, Abs format (unit mm)*
G04 Created by KiCad (PCBNEW 7.0.10) date 2024-03-10 23:32:19*
%MOMM*%
%LPD*%
G01*
G04 APERTURE LIST*
G04 Aperture macros list*
%AMRoundRect*
0 Rectangle with rounded corners*
0 $1 Rounding radius*
0 $2 $3 $4 $5 $6 $7 $8 $9 X,Y pos of 4 corners*
0 Add a 4 corners polygon primitive as box body*
4,1,4,$2,$3,$4,$5,$6,$7,$8,$9,$2,$3,0*
0 Add four circle primitives for the rounded corners*
1,1,$1+$1,$2,$3*
1,1,$1+$1,$4,$5*
1,1,$1+$1,$6,$7*
1,1,$1+$1,$8,$9*
0 Add four rect primitives between the rounded corners*
20,1,$1+$1,$2,$3,$4,$5,0*
20,1,$1+$1,$4,$5,$6,$7,0*
20,1,$1+$1,$6,$7,$8,$9,0*
20,1,$1+$1,$8,$9,$2,$3,0*%
G04 Aperture macros list end*
%TA.AperFunction,SMDPad,CuDef*%
%ADD10RoundRect,0.237500X-0.237500X0.300000X-0.237500X-0.300000X0.237500X-0.300000X0.237500X0.300000X0*%
%TD*%
%TA.AperFunction,SMDPad,CuDef*%
%ADD11RoundRect,0.155000X0.212500X0.155000X-0.212500X0.155000X-0.212500X-0.155000X0.212500X-0.155000X0*%
%TD*%
%TA.AperFunction,SMDPad,CuDef*%
%ADD12RoundRect,0.250000X0.650000X-0.412500X0.650000X0.412500X-0.650000X0.412500X-0.650000X-0.412500X0*%
%TD*%
%TA.AperFunction,SMDPad,CuDef*%
%ADD13R,2.400000X1.500000*%
%TD*%
%TA.AperFunction,ComponentPad*%
%ADD14R,1.700000X1.700000*%
%TD*%
%TA.AperFunction,ComponentPad*%
%ADD15O,1.700000X1.700000*%
%TD*%
%TA.AperFunction,ComponentPad*%
%ADD16C,1.308000*%
%TD*%
%TA.AperFunction,SMDPad,CuDef*%
%ADD17RoundRect,0.250000X0.450000X-0.262500X0.450000X0.262500X-0.450000X0.262500X-0.450000X-0.262500X0*%
%TD*%
%TA.AperFunction,SMDPad,CuDef*%
%ADD18RoundRect,0.250000X0.262500X0.450000X-0.262500X0.450000X-0.262500X-0.450000X0.262500X-0.450000X0*%
%TD*%
%TA.AperFunction,SMDPad,CuDef*%
%ADD19RoundRect,0.250000X-0.262500X-0.450000X0.262500X-0.450000X0.262500X0.450000X-0.262500X0.450000X0*%
%TD*%
%TA.AperFunction,ComponentPad*%
%ADD20R,1.905000X2.000000*%
%TD*%
%TA.AperFunction,ComponentPad*%
%ADD21O,1.905000X2.000000*%
%TD*%
%TA.AperFunction,ComponentPad*%
%ADD22C,1.008000*%
%TD*%
%TA.AperFunction,ComponentPad*%
%ADD23R,1.008000X1.008000*%
%TD*%
%TA.AperFunction,SMDPad,CuDef*%
%ADD24RoundRect,0.150000X0.512500X0.150000X-0.512500X0.150000X-0.512500X-0.150000X0.512500X-0.150000X0*%
%TD*%
%TA.AperFunction,ViaPad*%
%ADD25C,0.800000*%
%TD*%
%TA.AperFunction,Conductor*%
%ADD26C,0.250000*%
%TD*%
G04 APERTURE END LIST*
D10*
%TO.P,C4,1*%
%TO.N,GND*%
X56388000Y-84582000D03*
%TO.P,C4,2*%
%TO.N,+5V*%
X56388000Y-86307000D03*
%TD*%
%TO.P,C3,1*%
%TO.N,GND*%
X58039000Y-84582000D03*
%TO.P,C3,2*%
%TO.N,+5V*%
X58039000Y-86307000D03*
%TD*%
D11*
%TO.P,C2,1*%
%TO.N,Net-(U1-BST)*%
X51943000Y-87757000D03*
%TO.P,C2,2*%
%TO.N,Net-(U1-SW)*%
X50808000Y-87757000D03*
%TD*%
D12*
%TO.P,C1,1*%
%TO.N,Net-(U1-EN)*%
X52197000Y-82461500D03*
%TO.P,C1,2*%
%TO.N,GND*%
X52197000Y-79336500D03*
%TD*%
D13*
%TO.P,L1,1,1*%
%TO.N,Net-(U1-SW)*%
X46609000Y-85725000D03*
%TO.P,L1,2,2*%
%TO.N,+5V*%
X46609000Y-91225000D03*
%TD*%
D14*
%TO.P,Buzzer1,1,Pin_1*%
%TO.N,Net-(Buzzer1-Pin_1)*%
X44960000Y-109750000D03*
D15*
%TO.P,Buzzer1,2,Pin_2*%
%TO.N,Net-(Buzzer1-Pin_2)*%
X47500000Y-109750000D03*
%TD*%
%TO.P,ASPD-4525,6,3V3*%
%TO.N,unconnected-(ASPD-4525-3V3-Pad6)*%
X54300000Y-122090000D03*
%TO.P,ASPD-4525,5,GND*%
%TO.N,GND*%
X54300000Y-119550000D03*
%TO.P,ASPD-4525,4,SDA*%
%TO.N,Net-(ASPD-4525-SDA)*%
X54300000Y-117010000D03*
%TO.P,ASPD-4525,3,SCL*%
%TO.N,Net-(ASPD-4525-SCL)*%
X54300000Y-114470000D03*
%TO.P,ASPD-4525,2,5V*%
%TO.N,+5V*%
X54300000Y-111930000D03*
D14*
%TO.P,ASPD-4525,1,GND*%
%TO.N,GND*%
X54300000Y-109390000D03*
%TD*%
D16*
%TO.P,TEENSY1,0,RX1*%
%TO.N,Net-(GPS6MV2-TX)*%
X104360000Y-47680000D03*
%TO.P,TEENSY1,1,TX1*%
%TO.N,Net-(GPS6MV2-RX)*%
X104360000Y-50220000D03*
%TO.P,TEENSY1,2,OUT2*%
%TO.N,Net-(TEENSY1-OUT2)*%
X104360000Y-52760000D03*
%TO.P,TEENSY1,3,LRCLK2*%
%TO.N,Net-(Buzzer1-Pin_2)*%
X104360000Y-55300000D03*
%TO.P,TEENSY1,3.3V_1,3.3V*%
%TO.N,Net-(GPS6MV2-Vcc)*%
X104360000Y-80700000D03*
%TO.P,TEENSY1,3.3V_2,3.3V*%
X119600000Y-50220000D03*
%TO.P,TEENSY1,4,BCLK2*%
%TO.N,unconnected-(TEENSY1-BCLK2-Pad4)*%
X104360000Y-57840000D03*
%TO.P,TEENSY1,5,IN2*%
%TO.N,unconnected-(TEENSY1-IN2-Pad5)*%
X104360000Y-60380000D03*
%TO.P,TEENSY1,6,OUT1D*%
%TO.N,Net-(Servo1-Pin_3)*%
X104360000Y-62920000D03*
%TO.P,TEENSY1,7,RX2*%
%TO.N,Net-(TEENSY1-RX2)*%
X104360000Y-65460000D03*
%TO.P,TEENSY1,8,TX2*%
%TO.N,Net-(TEENSY1-TX2)*%
X104360000Y-68000000D03*
%TO.P,TEENSY1,9,OUT1C*%
%TO.N,unconnected-(TEENSY1-OUT1C-Pad9)*%
X104360000Y-70540000D03*
%TO.P,TEENSY1,10,CS1*%
%TO.N,unconnected-(TEENSY1-CS1-Pad10)*%
X104360000Y-73080000D03*
%TO.P,TEENSY1,11,MOSI*%
%TO.N,unconnected-(TEENSY1-MOSI-Pad11)*%
X104360000Y-75620000D03*
%TO.P,TEENSY1,12,MISO*%
%TO.N,unconnected-(TEENSY1-MISO-Pad12)*%
X104360000Y-78160000D03*
%TO.P,TEENSY1,13,SCK*%
%TO.N,unconnected-(TEENSY1-SCK-Pad13)*%
X119600000Y-78160000D03*
%TO.P,TEENSY1,14,A0*%
%TO.N,unconnected-(TEENSY1-A0-Pad14)*%
X119600000Y-75620000D03*
%TO.P,TEENSY1,15,A1*%
%TO.N,unconnected-(TEENSY1-A1-Pad15)*%
X119600000Y-73080000D03*
%TO.P,TEENSY1,16,A2*%
%TO.N,unconnected-(TEENSY1-A2-Pad16)*%
X119600000Y-70540000D03*
%TO.P,TEENSY1,17,A3*%
%TO.N,unconnected-(TEENSY1-A3-Pad17)*%
X119600000Y-68000000D03*
%TO.P,TEENSY1,18,A4*%
%TO.N,Net-(ASPD-4525-SDA)*%
X119600000Y-65460000D03*
%TO.P,TEENSY1,19,A5*%
%TO.N,Net-(ASPD-4525-SCL)*%
X119600000Y-62920000D03*
%TO.P,TEENSY1,20,A6*%
%TO.N,unconnected-(TEENSY1-A6-Pad20)*%
X119600000Y-60380000D03*
%TO.P,TEENSY1,21,A7*%
%TO.N,unconnected-(TEENSY1-A7-Pad21)*%
X119600000Y-57840000D03*
%TO.P,TEENSY1,22,A8*%
%TO.N,unconnected-(TEENSY1-A8-Pad22)*%
X119600000Y-55300000D03*
%TO.P,TEENSY1,23,A9*%
%TO.N,unconnected-(TEENSY1-A9-Pad23)*%
X119600000Y-52760000D03*
%TO.P,TEENSY1,24,A10*%
%TO.N,unconnected-(TEENSY1-A10-Pad24)*%
X104360000Y-83240000D03*
%TO.P,TEENSY1,25,A11*%
%TO.N,unconnected-(TEENSY1-A11-Pad25)*%
X104360000Y-85780000D03*
%TO.P,TEENSY1,26,A12*%
%TO.N,unconnected-(TEENSY1-A12-Pad26)*%
X104360000Y-88320000D03*
%TO.P,TEENSY1,27,A13*%
%TO.N,unconnected-(TEENSY1-A13-Pad27)*%
X104360000Y-90860000D03*
%TO.P,TEENSY1,28,RX7*%
%TO.N,unconnected-(TEENSY1-RX7-Pad28)*%
X104360000Y-93400000D03*
%TO.P,TEENSY1,29,TX7*%
%TO.N,unconnected-(TEENSY1-TX7-Pad29)*%
X104360000Y-95940000D03*
%TO.P,TEENSY1,30,CRX3*%
%TO.N,unconnected-(TEENSY1-CRX3-Pad30)*%
X104360000Y-98480000D03*
%TO.P,TEENSY1,31,CTX3*%
%TO.N,unconnected-(TEENSY1-CTX3-Pad31)*%
X104360000Y-101020000D03*
%TO.P,TEENSY1,32,OUT1B*%
%TO.N,unconnected-(TEENSY1-OUT1B-Pad32)*%
X104360000Y-103560000D03*
%TO.P,TEENSY1,33,MCLK2*%
%TO.N,unconnected-(TEENSY1-MCLK2-Pad33)*%
X119600000Y-103560000D03*
%TO.P,TEENSY1,34,RX8*%
%TO.N,unconnected-(TEENSY1-RX8-Pad34)*%
X119600000Y-101020000D03*
%TO.P,TEENSY1,35,TX8*%
%TO.N,unconnected-(TEENSY1-TX8-Pad35)*%
X119600000Y-98480000D03*
%TO.P,TEENSY1,36,CS2*%
%TO.N,unconnected-(TEENSY1-CS2-Pad36)*%
X119600000Y-95940000D03*
%TO.P,TEENSY1,37,CS3*%
%TO.N,unconnected-(TEENSY1-CS3-Pad37)*%
X119600000Y-93400000D03*
%TO.P,TEENSY1,38,A14*%
%TO.N,unconnected-(TEENSY1-A14-Pad38)*%
X119600000Y-90860000D03*
%TO.P,TEENSY1,39,A15*%
%TO.N,unconnected-(TEENSY1-A15-Pad39)*%
X119600000Y-88320000D03*
%TO.P,TEENSY1,40,A16*%
%TO.N,unconnected-(TEENSY1-A16-Pad40)*%
X119600000Y-85780000D03*
%TO.P,TEENSY1,41,A17*%
%TO.N,unconnected-(TEENSY1-A17-Pad41)*%
X119600000Y-83240000D03*
%TO.P,TEENSY1,GND1,GND*%
%TO.N,GND*%
X104360000Y-45140000D03*
%TO.P,TEENSY1,GND2,GND*%
X119600000Y-80700000D03*
%TO.P,TEENSY1,GND3,GND*%
X119600000Y-47680000D03*
%TO.P,TEENSY1,VIN,VIN*%
%TO.N,+5V*%
X119600000Y-45140000D03*
%TD*%
D15*
%TO.P,Solenoid1,2,Pin_2*%
%TO.N,Net-(Q1-D)*%
X59309000Y-102870000D03*
D14*
%TO.P,Solenoid1,1,Pin_1*%
%TO.N,+5V*%
X59309000Y-100330000D03*
%TD*%
D17*
%TO.P,R1,1*%
%TO.N,Net-(D1-A)*%
X51816000Y-94003500D03*
%TO.P,R1,2*%
%TO.N,+5V*%
X51816000Y-92178500D03*
%TD*%
D18*
%TO.P,R2,1*%
%TO.N,GND*%
X47879000Y-105537000D03*
%TO.P,R2,2*%
%TO.N,Net-(Buzzer1-Pin_1)*%
X46054000Y-105537000D03*
%TD*%
D14*
%TO.P,GPS6MV2,1,Vcc*%
%TO.N,Net-(GPS6MV2-Vcc)*%
X145810000Y-83325000D03*
D15*
%TO.P,GPS6MV2,2,RX*%
%TO.N,Net-(GPS6MV2-RX)*%
X143270000Y-83325000D03*
%TO.P,GPS6MV2,3,TX*%
%TO.N,Net-(GPS6MV2-TX)*%
X140730000Y-83325000D03*
%TO.P,GPS6MV2,4,GND*%
%TO.N,GND*%
X138190000Y-83325000D03*
%TD*%
D14*
%TO.P,Servo1,1,Pin_1*%
%TO.N,+5V*%
X47000000Y-116010000D03*
D15*
%TO.P,Servo1,2,Pin_2*%
%TO.N,GND*%
X47000000Y-118550000D03*
%TO.P,Servo1,3,Pin_3*%
%TO.N,Net-(Servo1-Pin_3)*%
X47000000Y-121090000D03*
%TD*%
D14*
%TO.P,BMP390,1,VIN*%
%TO.N,+5V*%
X123490000Y-136220000D03*
D15*
%TO.P,BMP390,2,3Vo*%
%TO.N,unconnected-(BMP390-3Vo-Pad2)*%
X120950000Y-136220000D03*
%TO.P,BMP390,3,GND*%
%TO.N,GND*%
X118410000Y-136220000D03*
%TO.P,BMP390,4,SCL*%
%TO.N,Net-(ASPD-4525-SCL)*%
X115870000Y-136220000D03*
%TO.P,BMP390,5,SDO*%
%TO.N,unconnected-(BMP390-SDO-Pad5)*%
X113330000Y-136220000D03*
%TO.P,BMP390,6,SDA*%
%TO.N,Net-(ASPD-4525-SDA)*%
X110790000Y-136220000D03*
%TO.P,BMP390,7,CS*%
%TO.N,unconnected-(BMP390-CS-Pad7)*%
X108250000Y-136220000D03*
%TO.P,BMP390,8,INT*%
%TO.N,unconnected-(BMP390-INT-Pad8)*%
X105710000Y-136220000D03*
%TD*%
D19*
%TO.P,R3,1*%
%TO.N,Net-(Q1-G)*%
X68152000Y-94107000D03*
%TO.P,R3,2*%
%TO.N,Net-(TEENSY1-OUT2)*%
X69977000Y-94107000D03*
%TD*%
D14*
%TO.P,LSM6DSOX+LIS3MDL1,1,Vin*%
%TO.N,+5V*%
X93750000Y-136700000D03*
D15*
%TO.P,LSM6DSOX+LIS3MDL1,2,3vo*%
%TO.N,unconnected-(LSM6DSOX+LIS3MDL1-3vo-Pad2)*%
X91210000Y-136700000D03*
%TO.P,LSM6DSOX+LIS3MDL1,3,GND*%
%TO.N,GND*%
X88670000Y-136700000D03*
%TO.P,LSM6DSOX+LIS3MDL1,4,SCL*%
%TO.N,Net-(ASPD-4525-SCL)*%
X86130000Y-136700000D03*
%TO.P,LSM6DSOX+LIS3MDL1,5,SDA*%
%TO.N,Net-(ASPD-4525-SDA)*%
X83590000Y-136700000D03*
%TO.P,LSM6DSOX+LIS3MDL1,6,INT2*%
%TO.N,unconnected-(LSM6DSOX+LIS3MDL1-INT2-Pad6)*%
X81050000Y-136700000D03*
%TD*%
D20*
%TO.P,Q1,1,D*%
%TO.N,Net-(Q1-D)*%
X69100000Y-97450000D03*
D21*
%TO.P,Q1,2,G*%
%TO.N,Net-(Q1-G)*%
X66560000Y-97450000D03*
%TO.P,Q1,3,S*%
%TO.N,GND*%
X64020000Y-97450000D03*
%TD*%
D22*
%TO.P,XBEE1,20,20*%
%TO.N,unconnected-(XBEE1-Pad20)*%
X99500000Y-106050000D03*
%TO.P,XBEE1,19,19*%
%TO.N,unconnected-(XBEE1-Pad19)*%
X99500000Y-108050000D03*
%TO.P,XBEE1,18,18*%
%TO.N,unconnected-(XBEE1-Pad18)*%
X99500000Y-110050000D03*
%TO.P,XBEE1,17,17*%
%TO.N,unconnected-(XBEE1-Pad17)*%
X99500000Y-112050000D03*
%TO.P,XBEE1,16,16*%
%TO.N,unconnected-(XBEE1-Pad16)*%
X99500000Y-114050000D03*
%TO.P,XBEE1,15,15*%
%TO.N,unconnected-(XBEE1-Pad15)*%
X99500000Y-116050000D03*
%TO.P,XBEE1,14,14*%
%TO.N,unconnected-(XBEE1-Pad14)*%
X99500000Y-118050000D03*
%TO.P,XBEE1,13,13*%
%TO.N,unconnected-(XBEE1-Pad13)*%
X99500000Y-120050000D03*
%TO.P,XBEE1,12,12*%
%TO.N,unconnected-(XBEE1-Pad12)*%
X99500000Y-122050000D03*
%TO.P,XBEE1,11,11*%
%TO.N,unconnected-(XBEE1-Pad11)*%
X99500000Y-124050000D03*
%TO.P,XBEE1,10,10*%
%TO.N,GND*%
X77500000Y-124050000D03*
%TO.P,XBEE1,9,9*%
%TO.N,unconnected-(XBEE1-Pad9)*%
X77500000Y-122050000D03*
%TO.P,XBEE1,8,8*%
%TO.N,unconnected-(XBEE1-Pad8)*%
X77500000Y-120050000D03*
%TO.P,XBEE1,7,7*%
%TO.N,unconnected-(XBEE1-Pad7)*%
X77500000Y-118050000D03*
%TO.P,XBEE1,6,6*%
%TO.N,Net-(GPS6MV2-Vcc)*%
X77500000Y-116050000D03*
%TO.P,XBEE1,5,5*%
%TO.N,unconnected-(XBEE1-Pad5)*%
X77500000Y-114050000D03*
%TO.P,XBEE1,4,4*%
%TO.N,unconnected-(XBEE1-Pad4)*%
X77500000Y-112050000D03*
%TO.P,XBEE1,3,3*%
%TO.N,Net-(TEENSY1-TX2)*%
X77500000Y-110050000D03*
%TO.P,XBEE1,2,2*%
%TO.N,Net-(TEENSY1-RX2)*%
X77500000Y-108050000D03*
D23*
%TO.P,XBEE1,1,1*%
%TO.N,Net-(GPS6MV2-Vcc)*%
X77500000Y-106050000D03*
%TD*%
D14*
%TO.P,SW1,1*%
%TO.N,Net-(Power1-Pin_1)*%
X48285000Y-79522000D03*
D15*
%TO.P,SW1,2*%
%TO.N,Net-(U1-EN)*%
X48285000Y-82062000D03*
%TD*%
D24*
%TO.P,U1,1,FB*%
%TO.N,+5V*%
X54223500Y-86421000D03*
%TO.P,U1,2,EN*%
%TO.N,Net-(U1-EN)*%
X54223500Y-85471000D03*
%TO.P,U1,3,IN*%
X54223500Y-84521000D03*
%TO.P,U1,4,GND*%
%TO.N,GND*%
X51948500Y-84521000D03*
%TO.P,U1,5,SW*%
%TO.N,Net-(U1-SW)*%
X51948500Y-85471000D03*
%TO.P,U1,6,BST*%
%TO.N,Net-(U1-BST)*%
X51948500Y-86421000D03*
%TD*%
D14*
%TO.P,D1,1,K*%
%TO.N,GND*%
X50450000Y-100600000D03*
D15*
%TO.P,D1,2,A*%
%TO.N,Net-(D1-A)*%
X50450000Y-98060000D03*
%TD*%
D14*
%TO.P,Power1,1,Pin_1*%
%TO.N,Net-(Power1-Pin_1)*%
X49555000Y-75458000D03*
D15*
%TO.P,Power1,2,Pin_2*%
%TO.N,GND*%
X49555000Y-72918000D03*
%TD*%
D14*
%TO.P,SEN291,1,Vcc*%
%TO.N,+5V*%
X94932500Y-73880500D03*
D15*
%TO.P,SEN291,2,GND*%
%TO.N,GND*%
X94932500Y-71340500D03*
%TO.P,SEN291,3,SCL*%
%TO.N,Net-(ASPD-4525-SCL)*%
X94932500Y-68800500D03*
%TO.P,SEN291,4,SDA*%
%TO.N,Net-(ASPD-4525-SDA)*%
X94932500Y-66260500D03*
%TD*%
D25*
%TO.N,+5V*%
X62357000Y-93472000D03*
%TO.N,Net-(ASPD-4525-SCL)*%
X110250000Y-139700000D03*
%TO.N,Net-(ASPD-4525-SDA)*%
X109220000Y-61595000D03*
%TO.N,GND*%
X126238000Y-64643000D03*
%TD*%
D26*
%TO.N,Net-(GPS6MV2-Vcc)*%
X127508000Y-57531000D02*
X120197000Y-50220000D01*
%TO.N,Net-(Q1-D)*%
X63676396Y-102870000D02*
X63678198Y-102871802D01*
X59309000Y-102870000D02*
X63676396Y-102870000D01*
%TO.N,GND*%
X54300000Y-109390000D02*
X52655000Y-107745000D01*
X52655000Y-107745000D02*
X52655000Y-102800000D01*
X56388000Y-83439000D02*
X56388000Y-84582000D01*
X52285500Y-79336500D02*
X56388000Y-83439000D01*
X52197000Y-79336500D02*
X52285500Y-79336500D01*
X88670000Y-135279000D02*
X77350000Y-123959000D01*
X77350000Y-123959000D02*
X77350000Y-123900000D01*
X88670000Y-136700000D02*
X88670000Y-135279000D01*
%TO.N,Net-(ASPD-4525-SCL)*%
X104013000Y-64135000D02*
X118385000Y-64135000D01*
X118385000Y-64135000D02*
X119600000Y-62920000D01*
X99347500Y-68800500D02*
X104013000Y-64135000D01*
X94932500Y-68800500D02*
X99347500Y-68800500D01*
%TO.N,Net-(Q1-G)*%
X66560000Y-95619000D02*
X66560000Y-97450000D01*
X68072000Y-94107000D02*
X66560000Y-95619000D01*
X68152000Y-94107000D02*
X68072000Y-94107000D01*
%TO.N,Net-(TEENSY1-OUT2)*%
X102434000Y-52760000D02*
X104360000Y-52760000D01*
X83058000Y-81026000D02*
X83058000Y-72136000D01*
X69977000Y-94107000D02*
X83058000Y-81026000D01*
X83058000Y-72136000D02*
X102434000Y-52760000D01*
%TO.N,GND*%
X116683000Y-134493000D02*
X118410000Y-136220000D01*
X90877000Y-134493000D02*
X116683000Y-134493000D01*
X88670000Y-136700000D02*
X90877000Y-134493000D01*
X124714000Y-75565000D02*
X124714000Y-75586000D01*
X126238000Y-64643000D02*
X126238000Y-74041000D01*
X126238000Y-74041000D02*
X124714000Y-75565000D01*
X124714000Y-75586000D02*
X119600000Y-80700000D01*
%TO.N,Net-(GPS6MV2-Vcc)*%
X127508000Y-67183000D02*
X127508000Y-57531000D01*
X138303000Y-77978000D02*
X127508000Y-67183000D01*
X120197000Y-50220000D02*
X119600000Y-50220000D01*
X145810000Y-83325000D02*
X140463000Y-77978000D01*
X140463000Y-77978000D02*
X138303000Y-77978000D01*
%TO.N,+5V*%
X58494000Y-86307000D02*
X62357000Y-90170000D01*
X58039000Y-86307000D02*
X58494000Y-86307000D01*
X62357000Y-90170000D02*
X62357000Y-93472000D01*
%TO.N,GND*%
X64020000Y-90563000D02*
X58039000Y-84582000D01*
X64020000Y-97450000D02*
X64020000Y-90563000D01*
%TO.N,+5V*%
X56388000Y-86307000D02*
X58039000Y-86307000D01*
%TO.N,GND*%
X56388000Y-84582000D02*
X58039000Y-84582000D01*
%TO.N,Net-(U1-EN)*%
X52197000Y-82494500D02*
X54223500Y-84521000D01*
X52197000Y-82461500D02*
X52197000Y-82494500D01*
X51797500Y-82062000D02*
X52197000Y-82461500D01*
X48285000Y-82062000D02*
X51797500Y-82062000D01*
%TO.N,GND*%
X52197000Y-75560000D02*
X49555000Y-72918000D01*
X52197000Y-79336500D02*
X52197000Y-75560000D01*
%TO.N,+5V*%
X46668000Y-116010000D02*
X47000000Y-116010000D01*
X43180000Y-112522000D02*
X46668000Y-116010000D01*
X46570000Y-91225000D02*
X43180000Y-94615000D01*
X46609000Y-91225000D02*
X46570000Y-91225000D01*
X43180000Y-94615000D02*
X43180000Y-112522000D01*
X50862500Y-91225000D02*
X51816000Y-92178500D01*
X46609000Y-91225000D02*
X50862500Y-91225000D01*
%TO.N,Net-(U1-SW)*%
X50808000Y-86223092D02*
X50808000Y-87757000D01*
X51948500Y-85471000D02*
X51560092Y-85471000D01*
X51560092Y-85471000D02*
X50808000Y-86223092D01*
X46863000Y-85471000D02*
X46609000Y-85725000D01*
X51948500Y-85471000D02*
X46863000Y-85471000D01*
%TO.N,GND*%
X46101000Y-76372000D02*
X49555000Y-72918000D01*
X46101000Y-83566000D02*
X46101000Y-76372000D01*
X47056000Y-84521000D02*
X46101000Y-83566000D01*
X51948500Y-84521000D02*
X47056000Y-84521000D01*
%TO.N,+5V*%
X51816000Y-92178500D02*
X51816000Y-90879000D01*
X51816000Y-90879000D02*
X56388000Y-86307000D01*
X56274000Y-86421000D02*
X56388000Y-86307000D01*
X54223500Y-86421000D02*
X56274000Y-86421000D01*
%TO.N,Net-(D1-A)*%
X50450000Y-95369500D02*
X51816000Y-94003500D01*
X50450000Y-98060000D02*
X50450000Y-95369500D01*
%TO.N,+5V*%
X51816000Y-92178500D02*
X51992500Y-92178500D01*
X51709500Y-92285000D02*
X51816000Y-92178500D01*
%TO.N,Net-(U1-BST)*%
X51943000Y-87757000D02*
X51943000Y-86426500D01*
X51943000Y-86426500D02*
X51948500Y-86421000D01*
%TO.N,Net-(Buzzer1-Pin_1)*%
X44958000Y-106633000D02*
X44958000Y-109748000D01*
X44958000Y-109748000D02*
X44960000Y-109750000D01*
X46054000Y-105537000D02*
X44958000Y-106633000D01*
%TO.N,GND*%
X47879000Y-105537000D02*
X50613000Y-105537000D01*
X52655000Y-103495000D02*
X52655000Y-102800000D01*
X50613000Y-105537000D02*
X52655000Y-103495000D01*
%TO.N,Net-(Q1-D)*%
X69100000Y-97450000D02*
X63678198Y-102871802D01*
%TO.N,GND*%
X54955000Y-97450000D02*
X55626000Y-97450000D01*
X52655000Y-99750000D02*
X54955000Y-97450000D01*
X64020000Y-97450000D02*
X55626000Y-97450000D01*
%TO.N,Net-(Power1-Pin_1)*%
X49555000Y-78252000D02*
X48285000Y-79522000D01*
X49555000Y-75458000D02*
X49555000Y-78252000D01*
%TO.N,Net-(U1-EN)*%
X54223500Y-84521000D02*
X54223500Y-85471000D01*
%TO.N,GND*%
X119600000Y-80738000D02*
X119600000Y-80700000D01*
X122187000Y-83325000D02*
X119600000Y-80738000D01*
X138190000Y-83325000D02*
X122187000Y-83325000D01*
%TO.N,Net-(ASPD-4525-SCL)*%
X89130000Y-139700000D02*
X108650000Y-139700000D01*
X108650000Y-139700000D02*
X110250000Y-139700000D01*
X86130000Y-136700000D02*
X89130000Y-139700000D01*
%TO.N,Net-(ASPD-4525-SDA)*%
X104394000Y-61595000D02*
X109220000Y-61595000D01*
X99598000Y-61595000D02*
X104394000Y-61595000D01*
X94932500Y-66260500D02*
X99598000Y-61595000D01*
%TO.N,Net-(GPS6MV2-Vcc)*%
X77500000Y-106050000D02*
X76671000Y-106879000D01*
X76671000Y-115221000D02*
X77500000Y-116050000D01*
X76671000Y-106879000D02*
X76671000Y-115221000D01*
%TO.N,Net-(TEENSY1-RX2)*%
X100965000Y-68855000D02*
X100965000Y-84585000D01*
X104360000Y-65460000D02*
X100965000Y-68855000D01*
X100965000Y-84585000D02*
X77500000Y-108050000D01*
%TO.N,Net-(TEENSY1-TX2)*%
X104360000Y-68000000D02*
X102000000Y-70360000D01*
X102000000Y-85550000D02*
X77500000Y-110050000D01*
X102000000Y-70360000D02*
X102000000Y-85550000D01*
%TO.N,+5V*%
X123490000Y-136220000D02*
X123680000Y-136220000D01*
X50220000Y-116010000D02*
X54300000Y-111930000D01*
X93750000Y-136700000D02*
X98550000Y-136700000D01*
X47000000Y-116010000D02*
X50220000Y-116010000D01*
X121060000Y-138650000D02*
X123490000Y-136220000D01*
X100500000Y-138650000D02*
X121060000Y-138650000D01*
X98550000Y-136700000D02*
X100500000Y-138650000D01*
%TO.N,GND*%
X52655000Y-99750000D02*
X52655000Y-100600000D01*
X118410000Y-81890000D02*
X118410000Y-136220000D01*
X119600000Y-80700000D02*
X118410000Y-81890000D01*
X51805000Y-100600000D02*
X52655000Y-99750000D01*
X52655000Y-102600000D02*
X52655000Y-102800000D01*
X117060000Y-45140000D02*
X119600000Y-47680000D01*
X104360000Y-45140000D02*
X117060000Y-45140000D01*
X52655000Y-100600000D02*
X52655000Y-102600000D01*
X47000000Y-118550000D02*
X53300000Y-118550000D01*
X53300000Y-118550000D02*
X54300000Y-119550000D01*
X50450000Y-100600000D02*
X51805000Y-100600000D01*
%TO.N,Net-(D1-A)*%
X50546000Y-97964000D02*
X50450000Y-98060000D01*
%TD*%
M02*
