<?xml version="1.0" encoding="UTF-8" standalone="no"?>
<svg
   version="1.2"
   viewBox="0 0 340 340"
   width="340"
   height="340"
   id="svg13"
   sodipodi:docname="CrumpleZone_cv_cropped.svg"
   inkscape:version="1.1 (c68e22c387, 2021-05-23)"
   xmlns:inkscape="http://www.inkscape.org/namespaces/inkscape"
   xmlns:sodipodi="http://sodipodi.sourceforge.net/DTD/sodipodi-0.dtd"
   xmlns:xlink="http://www.w3.org/1999/xlink"
   xmlns="http://www.w3.org/2000/svg"
   xmlns:svg="http://www.w3.org/2000/svg"
   xmlns:rdf="http://www.w3.org/1999/02/22-rdf-syntax-ns#"
   xmlns:cc="http://creativecommons.org/ns#"
   xmlns:dc="http://purl.org/dc/elements/1.1/">
  <defs
     id="defs17">
    <color-profile
       name="Created-by-Microsoft-WCS-from-DMP:-CMYKPrinter.cdmp--CAMP:-Default-sRGB-monitor--and-GMMP:-Default-Gamut-Map-Model-Profile-for-photos"
       xlink:href="../../../../../../../WINDOWS/system32/spool/drivers/color/xdCMYKPrinter.icc"
       id="color-profile827" />
  </defs>
  <sodipodi:namedview
     id="namedview15"
     pagecolor="#ffffff"
     bordercolor="#666666"
     borderopacity="1.0"
     inkscape:pageshadow="2"
     inkscape:pageopacity="0.0"
     inkscape:pagecheckerboard="0"
     showgrid="false"
     width="450px"
     inkscape:zoom="0.75185185"
     inkscape:cx="240.73892"
     inkscape:cy="442.24138"
     inkscape:window-width="1920"
     inkscape:window-height="1001"
     inkscape:window-x="-9"
     inkscape:window-y="-9"
     inkscape:window-maximized="1"
     inkscape:current-layer="svg13" />
  <title
     id="title2">CrumpleZone_simpl</title>
  <style
     id="style4">
		.s0 { fill: #000000 } 
		.s1 { fill: #808080 } 
		.s2 { fill: none;stroke: #808080;stroke-miterlimit:100;stroke-width: 4 } 
		.s3 { fill: #a64444 } 
	</style>
  <path
     id="C"
     fill-rule="evenodd"
     class="s3"
     d="m 129.51571,68.729062 -0.92398,-1.1 q -1.64264,-2.1 -1.02665,-4.3 1.02665,-2.1 0.20533,-3.6 -0.308,-1.3 0.30799,-2.1 0.92398,-0.9 1.23197,-2 0.20534,-1.6 -1.02664,-3 -0.82132,-1.5 -0.10267,-2.9 -3.4906,-2.3 -4.51725,-4.1 -0.82132,-1.8 -2.97728,-3 -1.12931,-2.6 -1.53997,-3.5 -0.10267,-0.7 -0.10267,-1.5 -2.97727,-3 -6.77587,-3.2 -3.4906,-0.3 -7.2892,-0.5 -2.97728,-0.6 -4.41459,-0.4 -1.026637,0.2 -2.361277,-0.6 -2.46396,0.6 -3.59327,1.1 -1.02665,0.3 -1.7453,-0.4 -5.64657,1.3 -9.0345,1.8 -3.07995,0.3 -5.33857,2.3 -2.874616,0.9 -5.543902,1.9 -2.258625,0.9 -3.901262,2.9 -2.15596,2.7 -4.414585,4.3 -1.745302,1.5 -3.182609,3.7 -1.026648,1.1 -2.258625,1.9 -0.923984,0.7 -1.129313,2.3 -2.15596,2.4 -4.209256,5.6 -2.053295,3 -2.977279,5.7 0.20533,1.3 -0.513324,3.3 -0.615988,2 0.41066,3.7 -1.129314,2.3 0.102664,4.6 1.231978,2.2 1.745301,4.5 0.102666,0.7 -0.205329,1.6 -0.20533,0.7 0,1.9 0.205329,1.3 0.513324,2.4 0.410659,0.9 0.307994,2.2 0.205329,1.4 -0.205329,2.5 -0.41066,1.1 -0.41066,2.2 0,2 -0.615988,5.699998 -0.205329,3.8 -1.847966,5.5 -2.36129,1.99999 -3.079944,4.09999 -0.615989,1.9 -0.205329,2.8 0.205329,1.1 2.36129,1.9 2.361289,0.9 2.771949,1.9 -0.513324,1.4 -0.307995,2.8 0.307995,1.1 0.513324,2.5 -0.102664,1.3 -0.923983,2.6 -0.615989,1.1 -0.410659,2.5 -0.20533,1.5 0.410659,3.7 0.718654,1.8 1.129313,3.9 -0.307994,2 -0.102665,2.3 0.307994,0.1 0.41066,0.7 0.410658,1 0.102664,1.9 -0.307995,1 -0.410659,2.3 0.718653,0.8 0.718653,1.9 0.307994,1 1.129313,1.8 0.102665,1.7 -0.410659,3.4 -0.307995,1.8 0.20533,3.3 -0.821319,0.5 -0.41066,1.5 0.41066,0.7 -0.20533,1.6 -1.129312,3.4 0.41066,5.1 1.847966,1.5 3.079944,3.1 3.182608,1.8 6.365216,3.8 3.490603,2.2 7.186535,3.6 2.463955,2.1 4.825247,2.2 2.36129,0.1 4.51725,0 2.46395,-0.1 4.61991,-0.4 2.46396,-0.1 5.33858,0.7 3.69593,0.3 5.03057,-1.9 1.7453,-2.1 3.07995,-4.4 1.84796,-2.5 3.182597,-2.6 2.25862,-4 5.5439,-6.8 3.4906,-2.7 6.26255,-6.3 1.12931,-0.1 1.43731,-1 0.61599,-1.1 1.64263,-1.3 0.71866,-2.1 2.66929,-3 2.25862,-0.7 3.1826,-2.8 4.1066,-1.3 5.74924,-2.3 1.95063,-0.9 4.10659,-1.1 1.53997,0.3 2.87461,0.5 1.33464,0 3.07994,0.1 2.97729,1.4 4.1066,2.1 1.23197,0.5 1.7453,1.2 2.36128,0.9 3.07994,2 1.02665,1.2 3.07994,2.5 0.61599,1.3 0.92398,2.7 0.30801,1.2 1.02665,2.3 0.41067,3.6 -1.23197,5.7 -1.23198,2.2 -2.56663,4.4 -0.61598,0.8 -2.25862,1.8 -0.92398,1 -1.64263,2.4 -0.41066,1.2 -2.0533,1.1 -0.61599,1.9 -2.36129,2.3 -1.84797,0.4 -3.4906,1.2 -1.23198,0.9 -2.56662,1.7 -0.92398,0.8 -2.97728,0.8 -1.64264,-0.1 -3.18261,-0.7 -1.23198,-0.7 -2.87461,-1.1 -2.0533,0.1 -2.66929,-0.2 -0.30799,-0.1 -1.02665,0.2 -1.33463,0.8 -2.87461,2.7 -1.33464,2 -2.36129,3.2 -2.25863,1.9 -2.56662,2.9 0.10267,0.9 -0.41066,1.5 -0.71865,1.1 -1.7453,2.1 -0.61599,1.2 -1.53997,1.9 -2.56662,1.6 -3.69593,1.7 -0.61599,0 -1.12931,0.4 -1.43731,1.4 -2.25863,1.6 -0.71866,0.1 -0.92399,1.1 -5.954547,-0.1 -10.779797,2 -4.41458,1.9 -10.88247,1.4 -3.182603,0.2 -6.775872,-0.7 -3.285272,-0.9 -6.775876,-1.8 -2.361289,-0.3 -4.51725,-1.2 -1.950631,-0.7 -3.490603,-1.3 -5.235903,-1.2 -8.007853,-3.1 -2.771949,-2.2 -6.365217,-4.2 -1.950631,-0.5 -4.106591,-1.3 -1.847966,-0.7 -3.079944,-2.3 -1.231977,-1.4 -2.56662,-1.6 -1.334641,-0.2 -2.361289,-1.2 -1.129313,-1 -2.053296,-2.4 -0.821318,-1.5 -2.874614,-2.6 -1.231978,-3.5 -3.695932,-6.5 -2.155961,-3 -3.285273,-6.5 -1.437308,-1.1 -2.053297,-2.2 -0.410658,-0.9 -1.129312,-1.8 -0.513324,-3.5 -0.821319,-4.4 -0.410658,-1 -0.615988,-2.2 0.821319,-1.3 1.026648,-2.9 0.205329,-1.8 0.615989,-2.8 -1.334643,-1.3 -1.129313,-2.8 0.615989,-1.7 -0.615988,-3 -1.334643,-7 -1.129313,-11.5 0.513323,-4.3 0.718653,-8.7 0,-4.6 -0.410659,-7.4 -0.307994,-2.69999 -1.026648,-5.59999 -0.307994,-2.8 -1.026647,-5.599998 -0.307996,-2.8 0.410658,-5.6 2.053296,-1.3 2.874614,-3.6 0.923983,-2.5 2.155961,-4.1 0.615989,-7.2 4.311921,-12.9 3.695933,-5.7 6.057222,-12.2 0.923983,-1.6 1.539973,-2.4 0.821317,-0.7 1.129312,-1.6 0.307994,-3.3 1.847966,-5 1.642636,-1.9 2.771949,-3.2 0.513324,-0.5 0.410659,-1.3 0.410659,-0.9 0.923983,-1.4 1.231978,-1.7 2.77195,-3.4 2.566619,-2.5 3.182608,-3.2 0.615989,-1 0.513323,-1.8 0.307995,-0.6 -0.102664,-1.5 0,-0.7 0.307995,-1.8 2.15596,-2.1 2.771949,-3.1 0.923982,-0.9 2.669284,-1.2 0.923983,-1.6 2.36129,-2 1.437307,-0.5 2.36129,-2.1 2.977279,-3 5.749228,-4.6 2.874614,-1.8 5.441234,-3.5 1.642636,-0.1 2.155961,-0.8 0.923983,-0.7 2.15596,-0.7 1.745301,-3.1 5.133239,-3.5 3.593269,-0.4 6.570549,-1.6000003 2.66928,-0.3 4.20925,0 1.43731,0.3000003 2.56662,-0.2 5.74923,-0.7 8.82918,-0.5 3.4906,0 6.365207,-0.1 1.95064,0 3.69593,0.6 1.7453,0.4000003 2.77195,0.1 3.49061,1.1000003 5.03058,1.4000003 1.7453,0.4 3.69593,1.3 3.49061,1 7.08387,2.1 3.4906,0.8 6.15989,2.5 3.07994,1.5 5.33857,2.6 2.46395,1.1 5.03057,2.2 1.12931,1.4 2.87461,2.3 1.64264,0.8 3.90127,1.6 0.30799,1.3 1.02665,2 1.02665,0.9 2.05329,1.7 1.33464,2.1 1.84797,2.6 0.51332,0.4 0.92398,1 0.61599,1.4 0.82132,2.7 0.61598,1.4 2.25862,2.4 -0.10266,1.2 0.61599,2.2 0.92399,1.1 1.95063,2.1 -0.41066,1.3 0.308,2.3 1.02664,1.1 1.95063,2.1 5.2359,2 6.15989,3.5 0.92398,1.3 2.87461,2.5 2.25862,1 3.28528,2.1 0.92398,1.1 2.87461,2.3 3.07994,1.8 4.10659,3.9 1.12931,1.8 3.69593,1.8 1.33464,1 0.82132,2 -0.30799,1.1 -0.61599,2 -0.30799,1.3 -0.92399,3.5 -0.61598,2 -1.84796,3 -0.30799,2.4 -1.95063,3.7 -1.33464,1.3 -2.46395,2.8 -0.92398,1.2 -1.64264,1.4 -0.71866,0.2 -1.02665,1.1 -1.7453,0.4 -2.66928,1.3 -0.82132,0.7 -2.46396,0.8 -2.05329,0.2 -4.31192,-0.1 -1.84796,-0.2 -3.69593,0.4 -3.69593,-1.1 -4.00393,-1 -0.41066,0.1 -0.92398,-0.1 -0.51332,-0.7 -2.15596,-0.8 -1.53998,-0.1 -2.56662,-0.2 -1.84797,-0.4 -3.38794,-1.7 -1.33464,-1.3 -2.77195,-1.8 -2.56662,-0.2 -4.92791,-1.3 -1.95063,-1.2 -4.10659,-1.5 -2.05329,-2 -4.82524,-3.8 -2.46396,-1.6 -2.77195,-4 z m -35.111357,-24.1 q -0.41066,-1.9 0.30799,-2.9 0.71866,-1.1 1.95063,-1.9 1.43731,-0.7 2.87462,-1.1 1.745297,-0.3 2.874607,-0.9 1.43731,-0.4 2.97728,-0.1 1.53997,0.3 2.56662,0 3.4906,1.2 3.90127,3.1 0.71864,1.9 0.61598,3.1 -1.02665,4.2 -5.85189,4.2 -4.61992,0 -9.137167,-1.9 -1.23197,-1.2 -3.07994,-1.6 z m 16.323697,9.1 q 2.87461,3.2 2.15596,4.2 -0.61599,1 -2.05329,1.5 -1.12932,0.5 -2.77195,0.7 -1.33465,0 -2.46396,-0.7 -1.43731,-1.5 -2.77195,-2.5 -1.33464,-1 -1.23197,-2.2 -0.10267,-1.9 3.1826,-2 3.59327,0.1 5.95456,1 z m 11.90911,133.899988 q 0.71866,-1.3 0.71866,-2.5 0.10266,-1.3 1.12931,-2.6 1.95063,-0.9 5.44123,0.2 3.7986,1.2 4.82525,3.8 0,3.8 -2.87462,5.2 -2.56662,1.6 -6.77587,-0.6 -0.51333,-1.6 -2.46396,-3.5 z m -117.6538375,-38.5 q -1.026648,1 -2.258625,1.6 -1.334643,0.7 -3.49060299,-0.8 -1.33464201,-1.3 -2.46395501,-2.8 -1.129313,-1.8 -1.334642,-4.1 -0.102665,-1.4 -0.20533,-2.3 0.307995,-0.7 1.334642,-1.7 2.155961,-2.1 4.517251,-1.2 2.771949,0.8 4.517251,3.7 1.437307,1.9 0.821318,3.5 -0.307995,1.8 -1.437307,4.1 z m 117.6538375,44.4 0.51333,-0.4 q 1.84797,2.1 3.38793,3.9 2.05331,1.6 2.05331,3.8 -2.3613,2.2 -5.74924,3.1 -3.07994,0.8 -7.28919,-1.4 -0.82132,-0.9 -1.7453,-1.2 -0.92399,-0.4 -2.15597,-1.1 0,-1.2 -0.82131,-1.8 -0.51333,-0.7 -0.61599,-1.6 -0.71866,-3.6 2.36128,-4.4 3.28528,-0.7 5.95457,0.9 2.87461,0 4.10658,0.2 z"
     style="fill:#c74444;fill-opacity:1;stroke-width:1.01323" />
  <path
     id="Z"
     fill-rule="evenodd"
     class="s3"
     d="m 250.76104,120.13496 q 2.76239,1.9 5.02251,3.2 2.76238,1.2 4.64582,2.9 1.88344,0.5 3.01352,1.8 3.26463,1.5 3.26463,1.3 0.12556,-0.4 0.75337,-0.1 0.50225,0.4 1.88345,0.8 1.38118,0.5 2.26012,1.5 3.13907,1.2 3.13907,1 0.12557,-0.2 0.62781,0.1 4.52027,2.7 8.91497,4 1.63231,0.9 2.51125,1.1 0.87894,0.2 1.3812,0.6 1.88344,1.3 3.13906,1.4 1.25563,0.1 2.38571,0.6 1.88344,1.1 2.51125,1.2 0.75337,-0.1 1.38119,0.6 4.89694,1.3 9.41721,2.6 4.52026,1.4 8.16158,3.5 1.38119,-0.1 1.88344,0.6 0.75338,0.8 1.25562,1.3 l 4.64583,2.5 q 1.38119,1.1 2.3857,2.1 1.50675,0.8 1.75788,2 4.14357,2.1 6.52926,5.7 2.51126,3.5 3.13907,7.4 0.50226,2.9 1.13007,5.7 0.75338,2.7 -1.13007,4.1 0,1.2 -0.62781,2.3 -0.25113,1.1 0.12556,2.1 -1.63231,0.7 -2.63682,2.1 -1.13006,1.2 -2.26013,2.7 -0.87893,0.6 -1.63232,1.2 -0.87894,0.3 -1.25562,1.6 -1.25563,0.7 -2.76239,1.2 -1.13005,0.4 -2.26012,1.6 -2.88794,0.4 -5.27364,2.7 -2.63682,-0.3 -4.14358,1.2 -1.50676,1.3 -3.51576,2.3 -0.12556,1.5 -1.25562,2.1 -1.25563,0.7 -2.26013,1.7 -0.62782,0.7 -0.87894,1.8 0,1.1 -0.75338,1.4 -0.87895,2.7 -2.51126,3.6 -1.25562,0.9 -2.51125,2.8 -1.63232,0.7 -3.01352,1.8 -1.25562,0.9 -2.38568,2.1 -3.13907,1.2 -6.40371,2.9 -3.26464,1.4 -7.03152,1.5 -3.13906,0.2 -5.77589,0.6 -2.13456,0.4 -5.52476,-0.9 -2.00901,0 -3.39019,0.9 -0.87894,0.8 -2.13456,-0.5 -1.25563,1.5 -2.88796,1.4 -1.38119,0 -2.38568,1.1 -2.88796,-0.6 -4.26914,0.7 -5.77589,0.3 -10.29615,2.5 -4.39471,2.3 -9.54278,2.6 -2.51126,1.5 -5.27363,1.8 -2.63683,0.1 -5.77589,0.4 -3.26464,1.9 -7.40821,2.4 -4.14358,0.4 -7.65933,2 -2.3857,1.3 -4.14357,1.6 -1.50676,0.5 -3.13907,0.8 -1.50676,0.3 -3.01352,0.9 -1.13006,0.7 -2.13456,2.5 0.25113,1.8 -0.25113,3.4 -0.50225,1.3 -1.25562,2.7 -0.50226,1.3 -0.62782,2.6 -0.12556,1.3 1.0045,2.8 1.3812,0.6 2.3857,1.5 1.38119,1 2.76237,1.6 2.13458,0.5 3.01352,0.7 1.25563,0.5 2.26012,0.3 2.3857,0.8 4.52028,1.6 2.13455,0.4 4.77137,0.8 4.01801,1.9 7.28265,2.5 3.26462,0.5 6.78039,1 2.26013,0.4 4.26913,0.5 2.13457,0.1 3.3902,-0.8 3.01351,1.3 4.26913,1.7 1.3812,0.2 2.63683,1.6 2.63681,0.4 4.52025,1.2 1.88344,0.8 4.01801,1.5 2.76239,1.4 4.01801,1.8 1.75788,0.4 2.00901,1.7 0.87895,0.5 2.009,0.4 1.3812,-0.1 2.51126,0 2.00901,0.3 3.89245,1.1 1.88344,0.9 3.76688,0.8 2.51126,0 3.89246,0 1.75787,0.2 3.39018,0.8 4.01802,0.1 8.03603,1.2 4.3947,1.2 7.03152,3.3 1.75787,1.5 2.76237,1.8 1.13007,0.3 2.00901,0.9 1.88345,1.1 3.76689,2.4 1.88344,1.1 3.51576,2 0.25112,1.9 0.12556,3.6 0,1.7 -0.12556,3.3 -0.62783,3.5 -0.50226,4.4 0.25113,3.1 1.75788,6 1.50675,2.9 1.00451,5.9 -0.25114,2.5 -1.50676,4.2 -1.25563,1.6 -2.51125,3.3 -2.00902,0.3 -2.88796,2.2 -3.01349,1.2 -6.027,1.1 -2.63682,-0.1 -5.14809,-1.9 -1.88344,-1.4 -3.89244,-2.1 -1.75788,-0.7 -3.13906,-2.5 -9.41722,-4.5 -15.56979,-10 -4.77139,-2.3 -7.65934,-3.8 -2.38569,-1.5 -3.64131,-3.1 -7.28265,-4.4 -12.80742,-6.3 -5.27364,-2.1 -10.29614,-5.4 -1.75789,-1.1 -3.01352,-1.3 -1.25562,-0.5 -2.76238,-1.4 -2.3857,0.2 -5.02251,-0.2 -2.38569,-0.3 -4.52026,0.1 -3.26463,-0.9 -6.40369,-1.7 -3.01352,-1 -5.90147,-1.6 -0.50225,0.5 -2.009,0.1 -1.25563,-0.5 -2.00901,-0.1 -1.63232,-0.2 -3.64131,-1.4 -1.50676,-1.3 -3.01351,-1.9 -1.13008,0.2 -2.3857,-0.9 -1.0045,-0.9 -2.38568,-1.7 -1.13007,-0.5 -2.51127,-1.3 -1.25563,-1.1 -1.88344,-2.3 -0.75337,0.3 -1.63232,-0.8 -0.87894,-1.4 -1.63231,-1 -1.75788,-1.6 -2.63682,-1.9 -0.75337,-0.5 -1.13006,-1.3 -2.00902,-0.7 -3.51576,-2.1 -1.38119,-1.5 -2.51127,-2.7 -0.37668,-1.7 -1.25562,-3 -0.75338,-1.5 -1.50675,-2.8 0.12556,-1.3 -0.75337,-2.4 -0.50227,-1.1 0.12555,-2.1 -0.37669,-1.3 -0.50226,-1.9 0,-0.9 -0.75337,-2.2 0.87894,-2.6 0.75337,-4.6 0,-1.8 0.62782,-4.4 -0.37669,-0.7 -0.37669,-1.5 0.25113,-0.7 0.25113,-1.5 0.12556,-2.8 -0.12555,-6.1 -0.12558,-3.2 2.26012,-6 1.13007,-2.4 1.25562,-4.4 0.3767,-1.8 1.25563,-3.2 0.62782,-0.9 1.3812,-1.2 0.75337,-0.5 1.75788,-1.3 0.75338,-0.6 1.13006,-1.6 0.50226,-1 1.50676,-1.2 2.63681,-0.6 4.14356,-1.4 1.63232,-0.9 2.88796,-0.2 3.64132,0.3 6.65482,-0.9 3.13907,-1 6.90596,-0.9 2.51126,-0.9 4.14357,-1.8 1.50676,-0.9 3.89244,-0.4 3.26464,-1 6.27815,-1.6 3.3902,-0.4 6.7804,-1.1 3.6413,-1.1 4.52025,-0.8 1.25563,0.1 2.13457,-0.6 l 3.13907,-0.6 q 3.64132,-0.3 6.02702,-1.8 2.76237,-1.5 6.15257,-2 2.51126,-1.4 4.52025,-2.6 2.26015,-1.1 4.89696,-2 5.27364,-4.2 8.4127,-4.6 1.88345,-1.9 3.13909,-2.5 1.13005,-0.7 2.26012,-0.9 1.13007,-0.6 2.63681,-1.3 1.63233,-0.7 3.3902,-1 2.38569,-0.3 3.26464,-0.1 0.87894,0.2 1.50676,0.5 3.76688,-0.3 5.14807,-0.4 1.38119,-0.1 2.51126,0.3 1.75787,-0.1 2.76238,-0.3 1.13006,-0.3 1.88344,-0.4 2.88794,0.2 3.01351,0 0,-0.2 0.25112,0.2 4.26914,-0.9 4.52026,-0.7 0.62781,-1 1.13008,-1.2 0.62781,-0.2 1.38118,-0.3 3.76688,-1.4 5.90145,-4.9 -2.009,-2.2 -4.3947,-3.1 -2.13457,-1 -4.89694,-1.8 -3.26464,-2.3 -3.64133,-2.2 0,0 -0.12556,-0.6 -1.63231,-0.1 -2.13456,-0.5 -0.50227,-0.5 -1.25564,-1.1 -1.0045,-1 -2.009,-1.2 -0.87894,-0.2 -1.88345,-1.1 -1.50675,0.4 -3.0135,-0.8 -1.50675,-1.4 -3.13907,-1.5 -3.26463,-0.8 -5.3992,-1.5 -1.88344,-1 -3.3902,-1.2 -0.75337,-0.8 -1.3812,-0.7 -0.62781,-0.1 -1.88344,-0.4 -0.62781,0.2 -1.38118,-0.4 -0.75339,-0.6 -2.00901,-1 -2.63682,-0.5 -3.76688,-1.1 -1.00451,-0.7 -1.88344,-0.9 -3.3902,-1.1 -4.77139,-2.7 -1.75788,-0.2 -3.89245,-1.4 -2.009,-1.4 -4.52026,-2.2 -0.75337,0.4 -1.88344,0.1 -0.75337,-0.4 -1.50675,0.1 -7.53378,0.1 -13.30967,0.3 -2.38568,0.4 -5.77588,-0.1 -3.26463,-0.4 -5.90145,-2.2 -0.62781,0.2 -1.63233,-0.3 -1.00449,-0.5 -1.38118,-1.4 -3.51576,-2.4 -5.77589,-5.1 -2.26013,-2.8 -3.3902,-5.9 -0.75337,-1.9 -0.50224,-3.3 -1.25563,-2.2 -1.50676,-3 -0.12557,-0.6 0.50224,-0.8 -0.25111,-0.6 0,-1.3 0.62781,-0.8 1.25563,-1 0.3767,-1.1 0.75338,-2.7 0.25113,-1.6 0.50225,-3 0.62783,-1.5 1.13007,-2.8 0.62781,-1.1 2.13457,-1.8 2.88794,-1 4.14356,-2.8 1.3812,-1.9 3.89245,-1.7 1.13008,-0.1 1.63232,-1.2 0.62781,-0.9 1.3812,-1.6 1.38119,0.2 2.51125,0.4 1.38119,0.2 2.38569,1.3 2.51127,0.3 4.26914,2 1.88345,1.4 4.77139,2.3 4.26913,0.6 5.90145,1.6 2.13457,0.9 4.14357,2.7 1.88345,0.7 3.13908,2.3 1.13005,0.1 2.13456,0.9 1.13007,1 2.51126,1.2 z m 9.4172,53.8 q -1.88344,-0.4 -2.76237,0.6 -1.00451,0.7 -3.01352,-0.8 -2.76238,-3.1 -1.38119,-5.4 1.38119,-2.4 5.14809,-0.9 1.75787,1.2 2.38568,1.2 0.75339,-0.1 1.13007,0.6 1.25563,1.3 0.37669,2.8 -0.50225,1.6 -1.88345,1.9 z m 39.1756,55.2 q 0.3767,1.2 0.3767,2.5 0.25112,1.3 1.00449,2.7 -1.38119,2.2 -4.26913,2 -2.38569,-0.2 -4.52026,-2.4 -0.75338,-2.3 -1.25563,-2.8 -0.50225,-0.6 0.12556,-1.5 1.00451,-2.2 2.38569,-2.4 1.63232,-0.5 2.76239,0.1 0.62781,0.3 1.50676,1.1 0.87894,0.4 1.88343,0.7 z m -24.35918,15.6 q -3.51576,1 -6.52927,-1.5 -3.89245,-4.3 -2.63682,-8.1 0.25113,-0.9 1.13007,-1.7 1.0045,-0.8 2.00901,-0.8 4.89694,1.1 6.65482,1.8 1.88344,0.7 3.01351,2.7 0.50225,0.8 0.50225,2.1 0.25112,1.4 -0.37669,2.4 -0.75338,1.2 -2.26012,1.5 -1.13008,0.2 -1.50676,1.6 z m 49.974,43 q 0.37669,1.7 0.37669,2.9 0.50225,1.1 -0.37669,2.6 -0.87894,0.9 -2.00901,2.1 -1.0045,0.8 -2.63682,1.1 -1.50674,-1.2 -2.38569,-1.1 -0.37668,0.3 -1.25563,0.5 -3.51575,-0.9 -5.27363,-2.5 -0.37669,-1.7 -1.00451,-3.5 -0.25112,-1.8 0.25112,-3.6 0.62782,-1 1.63233,-1.9 1.38118,-0.7 3.0135,0.3 1.38119,-1.2 4.14358,0 3.0135,1.2 5.52476,3.1 z m -45.70486,35.2 q 1.0045,3 0,5.1 -1.0045,2.1 -3.26464,3.2 -2.13457,0.8 -4.89695,0.2 -2.88795,-0.5 -5.52476,-2.8 -1.50675,-2.5 -4.3947,-5.5 -2.51126,-2.7 0.12557,-5 1.88344,-0.3 4.01801,-0.2 2.26012,-0.1 4.89694,1 2.009,-0.3 4.39471,0.5 2.63681,1.1 4.64582,3.5 z m -39.42673,-19.3 q 0,1.2 -0.50225,1.8 -0.37669,0.3 -1.0045,1.1 -1.50676,0.2 -3.26463,0 -1.3812,0 -2.88795,-2.1 -1.00451,-1.5 -1.13006,-3.1 -0.12557,-1.8 -0.37669,-3.4 1.88344,-1.4 5.02252,0.8 3.39018,2.1 4.14356,4.9 z m 9.29164,-147.2 q 0.25114,1.8 0.37671,3.3 -3.89245,5.1 -11.30066,3.6 -2.13457,-1.8 -3.3902,-3.8 1.25563,-1.5 2.009,-2 0.87895,-0.8 1.75788,-1.5 1.50676,0.3 2.26014,-0.3 1.13006,-0.4 2.26012,-0.8 1.25563,0.7 2.88795,0.5 1.63232,-0.1 3.13906,1 z"
     style="fill:#c74444;fill-opacity:1;stroke-width:1.12055" />
  <metadata
     id="metadata834">
    <rdf:RDF>
      <cc:Work
         rdf:about="">
        <dc:title>CrumpleZone_simpl</dc:title>
      </cc:Work>
    </rdf:RDF>
  </metadata>
</svg>
