<?xml version="1.0" encoding="UTF-8" standalone="no"?>
<svg
   version="1.2"
   viewBox="0 0 550 700"
   width="550"
   height="700"
   id="svg13"
   sodipodi:docname="CrumpleZone_simpl (3).svg"
   inkscape:version="1.1 (c68e22c387, 2021-05-23)"
   xmlns:inkscape="http://www.inkscape.org/namespaces/inkscape"
   xmlns:sodipodi="http://sodipodi.sourceforge.net/DTD/sodipodi-0.dtd"
   xmlns="http://www.w3.org/2000/svg"
   xmlns:svg="http://www.w3.org/2000/svg"
   xmlns:rdf="http://www.w3.org/1999/02/22-rdf-syntax-ns#"
   xmlns:cc="http://creativecommons.org/ns#"
   xmlns:dc="http://purl.org/dc/elements/1.1/">
  <defs
     id="defs17" />
  <sodipodi:namedview
     id="namedview15"
     pagecolor="#ffffff"
     bordercolor="#666666"
     borderopacity="1.0"
     inkscape:pageshadow="2"
     inkscape:pageopacity="0.0"
     inkscape:pagecheckerboard="0"
     showgrid="false"
     width="1079px"
     inkscape:zoom="0.75185185"
     inkscape:cx="283.30049"
     inkscape:cy="442.24138"
     inkscape:window-width="1920"
     inkscape:window-height="1001"
     inkscape:window-x="-9"
     inkscape:window-y="-9"
     inkscape:window-maximized="1"
     inkscape:current-layer="svg13" />
  <title
     id="title2">CrumpleZone_simpl</title>
  <style
     id="style4">
		.s0 { fill: #000000 } 
		.s1 { fill: #808080 } 
		.s2 { fill: none;stroke: #808080;stroke-miterlimit:100;stroke-width: 4 } 
		.s3 { fill: #a64444 } 
	</style>
  <path
     id="Can"
     class="s0"
     d="m 467.28719,160.55517 5.3,15.8 c 0,0 -63,7 -96.3,96.2 -33.2,89.3 109.4,61.3 109.4,61.3 l -53.4,64.7 84,52.5 -106.7,75.3 115.5,61.2 c 0,0 -14,73.5 -56,82.3 -111.9,23.3 -294,31.5 -421.799998,-14 -30,-10.7 -14,-47.3 -14,-47.3 l 47.3,-47.2 -33.3,-68.3 26.3,-106.7 c 0,0 -52.5,-110.3 -54.3,-124.3 -1.7,-14 78.8,-49 78.8,-49 0,0 -54.3,-71.7 -52.5,-101.5 1.7,-29.699998 31.5,-38.499998 31.5,-38.499998 0,0 -1.8,-3.5 -7,-50.7 44.499998,-32.5 349.299998,21.2 415.599998,96.199998 0,27.9 -18.4,42 -18.4,42 z" />
  <path
     id="Shading left"
     class="s1"
     d="m 82.387192,276.35517 51.399998,53.2 -70.899998,136.6 81.599998,154.3 c 0,0 157.8,14.2 115.3,23 -113.4,23.7 -88.7,56.8 -218.199998,10.7 -30.5,-10.9 -14.2,-42.6 -14.2,-42.6 l 47.9,-47.9 -33.7,-69.2 26.6,-108.2 c 0,0 -53.2,-111.7 -55,-125.9 -1.8,-14.2 86.899998,-49.7 86.899998,-49.7 z" />
  <path
     id="Shading right"
     class="s1"
     d="m 379.78719,262.05517 -22.7,56 80.5,40.3 -29.8,47.2 68.3,36.8 -67.4,81.6 111.1,-71.1 -81.4,-49.7 53.4,-72.8 c 0,0 -67.4,20.3 -99.7,-7 -32.4,-27.4 -12.3,-61.3 -12.3,-61.3 z" />
  <path
     id="Top Lip"
     class="s2"
     d="m 70.087192,43.355172 c 99.699998,42 229.199998,73.499998 297.499998,82.199998" />
  <path
     id="Bottom Lip"
     class="s2"
     d="m 459.48719,646.35517 c -89.2,-12.1 -200,-9.4 -256.8,-1.7" />
  <path
     id="C"
     fill-rule="evenodd"
     class="s3"
     d="m 476.78719,233.65517 -0.9,-1.1 q -1.6,-2.1 -1,-4.3 1,-2.1 0.2,-3.6 -0.3,-1.3 0.3,-2.1 0.9,-0.9 1.2,-2 0.2,-1.6 -1,-3 -0.8,-1.5 -0.1,-2.9 -3.4,-2.3 -4.4,-4.1 -0.8,-1.8 -2.9,-3 -1.1,-2.6 -1.5,-3.5 -0.1,-0.7 -0.1,-1.5 -2.9,-3 -6.6,-3.2 -3.4,-0.3 -7.1,-0.5 -2.9,-0.6 -4.3,-0.4 -1,0.2 -2.3,-0.6 -2.4,0.6 -3.5,1.1 -1,0.3 -1.7,-0.4 -5.5,1.3 -8.8,1.8 -3,0.3 -5.2,2.3 -2.8,0.9 -5.4,1.9 -2.2,0.9 -3.8,2.9 -2.1,2.7 -4.3,4.3 -1.7,1.5 -3.1,3.7 -1,1.1 -2.2,1.9 -0.9,0.7 -1.1,2.3 -2.1,2.4 -4.1,5.6 -2,3 -2.9,5.7 0.2,1.3 -0.5,3.3 -0.6,2 0.4,3.7 -1.1,2.3 0.1,4.6 1.2,2.2 1.7,4.5 0.1,0.7 -0.2,1.6 -0.2,0.7 0,1.9 0.2,1.3 0.5,2.4 0.4,0.9 0.3,2.2 0.2,1.4 -0.2,2.5 -0.4,1.1 -0.4,2.2 0,2 -0.6,5.7 -0.2,3.8 -1.8,5.5 -2.3,2 -3,4.1 -0.6,1.9 -0.2,2.8 0.2,1.1 2.3,1.9 2.3,0.9 2.7,1.9 -0.5,1.4 -0.3,2.8 0.3,1.1 0.5,2.5 -0.1,1.3 -0.9,2.6 -0.6,1.1 -0.4,2.5 -0.2,1.5 0.4,3.7 0.7,1.8 1.1,3.9 -0.3,2 -0.1,2.3 0.3,0.1 0.4,0.7 0.4,1 0.1,1.9 -0.3,1 -0.4,2.3 0.7,0.8 0.7,1.9 0.3,1 1.1,1.8 0.1,1.7 -0.4,3.4 -0.3,1.8 0.2,3.3 -0.8,0.5 -0.4,1.5 0.4,0.7 -0.2,1.6 -1.1,3.4 0.4,5.1 1.8,1.5 3,3.1 3.1,1.8 6.2,3.8 3.4,2.2 7,3.6 2.4,2.1 4.7,2.2 2.3,0.1 4.4,0 2.4,-0.1 4.5,-0.4 2.4,-0.1 5.2,0.7 3.6,0.3 4.9,-1.9 1.7,-2.1 3,-4.4 1.8,-2.5 3.1,-2.6 2.2,-4 5.4,-6.8 3.4,-2.7 6.1,-6.3 1.1,-0.1 1.4,-1 0.6,-1.1 1.6,-1.3 0.7,-2.1 2.6,-3 2.2,-0.7 3.1,-2.8 4,-1.3 5.6,-2.3 1.9,-0.9 4,-1.1 1.5,0.3 2.8,0.5 1.3,0 3,0.1 2.9,1.4 4,2.1 1.2,0.5 1.7,1.2 2.3,0.9 3,2 1,1.2 3,2.5 0.6,1.3 0.9,2.7 0.3,1.2 1,2.3 0.4,3.6 -1.2,5.7 -1.2,2.2 -2.5,4.4 -0.6,0.8 -2.2,1.8 -0.9,1 -1.6,2.4 -0.4,1.2 -2,1.1 -0.6,1.9 -2.3,2.3 -1.8,0.4 -3.4,1.2 -1.2,0.9 -2.5,1.7 -0.9,0.8 -2.9,0.8 -1.6,-0.1 -3.1,-0.7 -1.2,-0.7 -2.8,-1.1 -2,0.1 -2.6,-0.2 -0.3,-0.1 -1,0.2 -1.3,0.8 -2.8,2.7 -1.3,2 -2.3,3.2 -2.2,1.9 -2.5,2.9 0.1,0.9 -0.4,1.5 -0.7,1.1 -1.7,2.1 -0.6,1.2 -1.5,1.9 -2.5,1.6 -3.6,1.7 -0.6,0 -1.1,0.4 -1.4,1.4 -2.2,1.6 -0.7,0.1 -0.9,1.1 -5.8,-0.1 -10.5,2 -4.3,1.9 -10.6,1.4 -3.1,0.2 -6.6,-0.7 -3.2,-0.9 -6.6,-1.8 -2.3,-0.3 -4.4,-1.2 -1.9,-0.7 -3.4,-1.3 -5.1,-1.2 -7.8,-3.1 -2.7,-2.2 -6.2,-4.2 -1.9,-0.5 -4,-1.3 -1.8,-0.7 -3,-2.3 -1.2,-1.4 -2.5,-1.6 -1.3,-0.2 -2.3,-1.2 -1.1,-1 -2,-2.4 -0.8,-1.5 -2.8,-2.6 -1.2,-3.5 -3.6,-6.5 -2.1,-3 -3.2,-6.5 -1.4,-1.1 -2,-2.2 -0.4,-0.9 -1.1,-1.8 -0.5,-3.5 -0.8,-4.4 -0.4,-1 -0.6,-2.2 0.8,-1.3 1,-2.9 0.2,-1.8 0.6,-2.8 -1.3,-1.3 -1.1,-2.8 0.6,-1.7 -0.6,-3 -1.3,-7 -1.1,-11.5 0.5,-4.3 0.7,-8.7 0,-4.6 -0.4,-7.4 -0.3,-2.7 -1,-5.6 -0.3,-2.8 -1,-5.6 -0.3,-2.8 0.4,-5.6 2,-1.3 2.8,-3.6 0.9,-2.5 2.1,-4.1 0.6,-7.2 4.2,-12.9 3.6,-5.7 5.9,-12.2 0.9,-1.6 1.5,-2.4 0.8,-0.7 1.1,-1.6 0.3,-3.3 1.8,-5 1.6,-1.9 2.7,-3.2 0.5,-0.5 0.4,-1.3 0.4,-0.9 0.9,-1.4 1.2,-1.7 2.7,-3.4 2.5,-2.5 3.1,-3.2 0.6,-1 0.5,-1.8 0.3,-0.6 -0.1,-1.5 0,-0.7 0.3,-1.8 2.1,-2.1 2.7,-3.1 0.9,-0.9 2.6,-1.2 0.9,-1.6 2.3,-2 1.4,-0.5 2.3,-2.1 2.9,-3 5.6,-4.6 2.8,-1.8 5.3,-3.5 1.6,-0.1 2.1,-0.8 0.9,-0.7 2.1,-0.7 1.7,-3.1 5,-3.5 3.5,-0.4 6.4,-1.6 2.6,-0.3 4.1,0 1.4,0.3 2.5,-0.2 5.6,-0.7 8.6,-0.5 3.4,0 6.2,-0.1 1.9,0 3.6,0.6 1.7,0.4 2.7,0.1 3.4,1.1 4.9,1.4 1.7,0.4 3.6,1.3 3.4,1 6.9,2.1 3.4,0.8 6,2.5 3,1.5 5.2,2.6 2.4,1.1 4.9,2.2 1.1,1.4 2.8,2.3 1.6,0.8 3.8,1.6 0.3,1.3 1,2 1,0.9 2,1.7 1.3,2.1 1.8,2.6 0.5,0.4 0.9,1 0.6,1.4 0.8,2.7 0.6,1.4 2.2,2.4 -0.1,1.2 0.6,2.2 0.9,1.1 1.9,2.1 -0.4,1.3 0.3,2.3 1,1.1 1.9,2.1 5.1,2 6,3.5 0.9,1.3 2.8,2.5 2.2,1 3.2,2.1 0.9,1.1 2.8,2.3 3,1.8 4,3.9 1.1,1.8 3.6,1.8 1.3,1 0.8,2 -0.3,1.1 -0.6,2 -0.3,1.3 -0.9,3.5 -0.6,2 -1.8,3 -0.3,2.4 -1.9,3.7 -1.3,1.3 -2.4,2.8 -0.9,1.2 -1.6,1.4 -0.7,0.2 -1,1.1 -1.7,0.4 -2.6,1.3 -0.8,0.7 -2.4,0.8 -2,0.2 -4.2,-0.1 -1.8,-0.2 -3.6,0.4 -3.6,-1.1 -3.9,-1 -0.4,0.1 -0.9,-0.1 -0.5,-0.7 -2.1,-0.8 -1.5,-0.1 -2.5,-0.2 -1.8,-0.4 -3.3,-1.7 -1.3,-1.3 -2.7,-1.8 -2.5,-0.2 -4.8,-1.3 -1.9,-1.2 -4,-1.5 -2,-2 -4.7,-3.8 -2.4,-1.6 -2.7,-4 z m -34.2,-24.1 q -0.4,-1.9 0.3,-2.9 0.7,-1.1 1.9,-1.9 1.4,-0.7 2.8,-1.1 1.7,-0.3 2.8,-0.9 1.4,-0.4 2.9,-0.1 1.5,0.3 2.5,0 3.4,1.2 3.8,3.1 0.7,1.9 0.6,3.1 -1,4.2 -5.7,4.2 -4.5,0 -8.9,-1.9 -1.2,-1.2 -3,-1.6 z m 15.9,9.1 q 2.8,3.2 2.1,4.2 -0.6,1 -2,1.5 -1.1,0.5 -2.7,0.7 -1.3,0 -2.4,-0.7 -1.4,-1.5 -2.7,-2.5 -1.3,-1 -1.2,-2.2 -0.1,-1.9 3.1,-2 3.5,0.1 5.8,1 z m 11.6,133.9 q 0.7,-1.3 0.7,-2.5 0.1,-1.3 1.1,-2.6 1.9,-0.9 5.3,0.2 3.7,1.2 4.7,3.8 0,3.8 -2.8,5.2 -2.5,1.6 -6.6,-0.6 -0.5,-1.6 -2.4,-3.5 z m -114.6,-38.5 q -1,1 -2.2,1.6 -1.3,0.7 -3.4,-0.8 -1.3,-1.3 -2.4,-2.8 -1.1,-1.8 -1.3,-4.1 -0.1,-1.4 -0.2,-2.3 0.3,-0.7 1.3,-1.7 2.1,-2.1 4.4,-1.2 2.7,0.8 4.4,3.7 1.4,1.9 0.8,3.5 -0.3,1.8 -1.4,4.1 z m 114.6,44.4 0.5,-0.4 q 1.8,2.1 3.3,3.9 2,1.6 2,3.8 -2.3,2.2 -5.6,3.1 -3,0.8 -7.1,-1.4 -0.8,-0.9 -1.7,-1.2 -0.9,-0.4 -2.1,-1.1 0,-1.2 -0.8,-1.8 -0.5,-0.7 -0.6,-1.6 -0.7,-3.6 2.3,-4.4 3.2,-0.7 5.8,0.9 2.8,0 4,0.2 z" />
  <path
     id="Z"
     fill-rule="evenodd"
     class="s3"
     d="m 470.98719,395.45517 q 2.2,1.9 4,3.2 2.2,1.2 3.7,2.9 1.5,0.5 2.4,1.8 2.6,1.5 2.6,1.3 0.1,-0.4 0.6,-0.1 0.4,0.4 1.5,0.8 1.1,0.5 1.8,1.5 2.5,1.2 2.5,1 0.1,-0.2 0.5,0.1 3.6,2.7 7.1,4 1.3,0.9 2,1.1 0.7,0.2 1.1,0.6 1.5,1.3 2.5,1.4 1,0.1 1.9,0.6 1.5,1.1 2,1.2 0.6,-0.1 1.1,0.6 3.9,1.3 7.5,2.6 3.6,1.4 6.5,3.5 1.1,-0.1 1.5,0.6 0.6,0.8 1,1.3 l 3.7,2.5 q 1.1,1.1 1.9,2.1 1.2,0.8 1.4,2 3.3,2.1 5.2,5.7 2,3.5 2.5,7.4 0.4,2.9 0.9,5.7 0.6,2.7 -0.9,4.1 0,1.2 -0.5,2.3 -0.2,1.1 0.1,2.1 -1.3,0.7 -2.1,2.1 -0.9,1.2 -1.8,2.7 -0.7,0.6 -1.3,1.2 -0.7,0.3 -1,1.6 -1,0.7 -2.2,1.2 -0.9,0.4 -1.8,1.6 -2.3,0.4 -4.2,2.7 -2.1,-0.3 -3.3,1.2 -1.2,1.3 -2.8,2.3 -0.1,1.5 -1,2.1 -1,0.7 -1.8,1.7 -0.5,0.7 -0.7,1.8 0,1.1 -0.6,1.4 -0.7,2.7 -2,3.6 -1,0.9 -2,2.8 -1.3,0.7 -2.4,1.8 -1,0.9 -1.9,2.1 -2.5,1.2 -5.1,2.9 -2.6,1.4 -5.6,1.5 -2.5,0.2 -4.6,0.6 -1.7,0.4 -4.4,-0.9 -1.6,0 -2.7,0.9 -0.7,0.8 -1.7,-0.5 -1,1.5 -2.3,1.4 -1.1,0 -1.9,1.1 -2.3,-0.6 -3.4,0.7 -4.6,0.3 -8.2,2.5 -3.5,2.3 -7.6,2.6 -2,1.5 -4.2,1.8 -2.1,0.1 -4.6,0.4 -2.6,1.9 -5.9,2.4 -3.3,0.4 -6.1,2 -1.9,1.3 -3.3,1.6 -1.2,0.5 -2.5,0.8 -1.2,0.3 -2.4,0.9 -0.9,0.7 -1.7,2.5 0.2,1.8 -0.2,3.4 -0.4,1.3 -1,2.7 -0.4,1.3 -0.5,2.6 -0.1,1.3 0.8,2.8 1.1,0.6 1.9,1.5 1.1,1 2.2,1.6 1.7,0.5 2.4,0.7 1,0.5 1.8,0.3 1.9,0.8 3.6,1.6 1.7,0.4 3.8,0.8 3.2,1.9 5.8,2.5 2.6,0.5 5.4,1 1.8,0.4 3.4,0.5 1.7,0.1 2.7,-0.8 2.4,1.3 3.4,1.7 1.1,0.2 2.1,1.6 2.1,0.4 3.6,1.2 1.5,0.8 3.2,1.5 2.2,1.4 3.2,1.8 1.4,0.4 1.6,1.7 0.7,0.5 1.6,0.4 1.1,-0.1 2,0 1.6,0.3 3.1,1.1 1.5,0.9 3,0.8 2,0 3.1,0 1.4,0.2 2.7,0.8 3.2,0.1 6.4,1.2 3.5,1.2 5.6,3.3 1.4,1.5 2.2,1.8 0.9,0.3 1.6,0.9 1.5,1.1 3,2.4 1.5,1.1 2.8,2 0.2,1.9 0.1,3.6 0,1.7 -0.1,3.3 -0.5,3.5 -0.4,4.4 0.2,3.1 1.4,6 1.2,2.9 0.8,5.9 -0.2,2.5 -1.2,4.2 -1,1.6 -2,3.3 -1.6,0.3 -2.3,2.2 -2.4,1.2 -4.8,1.1 -2.1,-0.1 -4.1,-1.9 -1.5,-1.4 -3.1,-2.1 -1.4,-0.7 -2.5,-2.5 -7.5,-4.5 -12.4,-10 -3.8,-2.3 -6.1,-3.8 -1.9,-1.5 -2.9,-3.1 -5.8,-4.4 -10.2,-6.3 -4.2,-2.1 -8.2,-5.4 -1.4,-1.1 -2.4,-1.3 -1,-0.5 -2.2,-1.4 -1.9,0.2 -4,-0.2 -1.9,-0.3 -3.6,0.1 -2.6,-0.9 -5.1,-1.7 -2.4,-1 -4.7,-1.6 -0.4,0.5 -1.6,0.1 -1,-0.5 -1.6,-0.1 -1.3,-0.2 -2.9,-1.4 -1.2,-1.3 -2.4,-1.9 -0.9,0.2 -1.9,-0.9 -0.8,-0.9 -1.9,-1.7 -0.9,-0.5 -2,-1.3 -1,-1.1 -1.5,-2.3 -0.6,0.3 -1.3,-0.8 -0.7,-1.4 -1.3,-1 -1.4,-1.6 -2.1,-1.9 -0.6,-0.5 -0.9,-1.3 -1.6,-0.7 -2.8,-2.1 -1.1,-1.5 -2,-2.7 -0.3,-1.7 -1,-3 -0.6,-1.5 -1.2,-2.8 0.1,-1.3 -0.6,-2.4 -0.4,-1.1 0.1,-2.1 -0.3,-1.3 -0.4,-1.9 0,-0.9 -0.6,-2.2 0.7,-2.6 0.6,-4.6 0,-1.8 0.5,-4.4 -0.3,-0.7 -0.3,-1.5 0.2,-0.7 0.2,-1.5 0.1,-2.8 -0.1,-6.1 -0.1,-3.2 1.8,-6 0.9,-2.4 1,-4.4 0.3,-1.8 1,-3.2 0.5,-0.9 1.1,-1.2 0.6,-0.5 1.4,-1.3 0.6,-0.6 0.9,-1.6 0.4,-1 1.2,-1.2 2.1,-0.6 3.3,-1.4 1.3,-0.9 2.3,-0.2 2.9,0.3 5.3,-0.9 2.5,-1 5.5,-0.9 2,-0.9 3.3,-1.8 1.2,-0.9 3.1,-0.4 2.6,-1 5,-1.6 2.7,-0.4 5.4,-1.1 2.9,-1.1 3.6,-0.8 1,0.1 1.7,-0.6 l 2.5,-0.6 q 2.9,-0.3 4.8,-1.8 2.2,-1.5 4.9,-2 2,-1.4 3.6,-2.6 1.8,-1.1 3.9,-2 4.2,-4.2 6.7,-4.6 1.5,-1.9 2.5,-2.5 0.9,-0.7 1.8,-0.9 0.9,-0.6 2.1,-1.3 1.3,-0.7 2.7,-1 1.9,-0.3 2.6,-0.1 0.7,0.2 1.2,0.5 3,-0.3 4.1,-0.4 1.1,-0.1 2,0.3 1.4,-0.1 2.2,-0.3 0.9,-0.3 1.5,-0.4 2.3,0.2 2.4,0 0,-0.2 0.2,0.2 3.4,-0.9 3.6,-0.7 0.5,-1 0.9,-1.2 0.5,-0.2 1.1,-0.3 3,-1.4 4.7,-4.9 -1.6,-2.2 -3.5,-3.1 -1.7,-1 -3.9,-1.8 -2.6,-2.3 -2.9,-2.2 0,0 -0.1,-0.6 -1.3,-0.1 -1.7,-0.5 -0.4,-0.5 -1,-1.1 -0.8,-1 -1.6,-1.2 -0.7,-0.2 -1.5,-1.1 -1.2,0.4 -2.4,-0.8 -1.2,-1.4 -2.5,-1.5 -2.6,-0.8 -4.3,-1.5 -1.5,-1 -2.7,-1.2 -0.6,-0.8 -1.1,-0.7 -0.5,-0.1 -1.5,-0.4 -0.5,0.2 -1.1,-0.4 -0.6,-0.6 -1.6,-1 -2.1,-0.5 -3,-1.1 -0.8,-0.7 -1.5,-0.9 -2.7,-1.1 -3.8,-2.7 -1.4,-0.2 -3.1,-1.4 -1.6,-1.4 -3.6,-2.2 -0.6,0.4 -1.5,0.1 -0.6,-0.4 -1.2,0.1 -6,0.1 -10.6,0.3 -1.9,0.4 -4.6,-0.1 -2.6,-0.4 -4.7,-2.2 -0.5,0.2 -1.3,-0.3 -0.8,-0.5 -1.1,-1.4 -2.8,-2.4 -4.6,-5.1 -1.8,-2.8 -2.7,-5.9 -0.6,-1.9 -0.4,-3.3 -1,-2.2 -1.2,-3 -0.1,-0.6 0.4,-0.8 -0.2,-0.6 0,-1.3 0.5,-0.8 1,-1 0.3,-1.1 0.6,-2.7 0.2,-1.6 0.4,-3 0.5,-1.5 0.9,-2.8 0.5,-1.1 1.7,-1.8 2.3,-1 3.3,-2.8 1.1,-1.9 3.1,-1.7 0.9,-0.1 1.3,-1.2 0.5,-0.9 1.1,-1.6 1.1,0.2 2,0.4 1.1,0.2 1.9,1.3 2,0.3 3.4,2 1.5,1.4 3.8,2.3 3.4,0.6 4.7,1.6 1.7,0.9 3.3,2.7 1.5,0.7 2.5,2.3 0.9,0.1 1.7,0.9 0.9,1 2,1.2 z m 7.5,53.8 q -1.5,-0.4 -2.2,0.6 -0.8,0.7 -2.4,-0.8 -2.2,-3.1 -1.1,-5.4 1.1,-2.4 4.1,-0.9 1.4,1.2 1.9,1.2 0.6,-0.1 0.9,0.6 1,1.3 0.3,2.8 -0.4,1.6 -1.5,1.9 z m 31.2,55.2 q 0.3,1.2 0.3,2.5 0.2,1.3 0.8,2.7 -1.1,2.2 -3.4,2 -1.9,-0.2 -3.6,-2.4 -0.6,-2.3 -1,-2.8 -0.4,-0.6 0.1,-1.5 0.8,-2.2 1.9,-2.4 1.3,-0.5 2.2,0.1 0.5,0.3 1.2,1.1 0.7,0.4 1.5,0.7 z m -19.4,15.6 q -2.8,1 -5.2,-1.5 -3.1,-4.3 -2.1,-8.1 0.2,-0.9 0.9,-1.7 0.8,-0.8 1.6,-0.8 3.9,1.1 5.3,1.8 1.5,0.7 2.4,2.7 0.4,0.8 0.4,2.1 0.2,1.4 -0.3,2.4 -0.6,1.2 -1.8,1.5 -0.9,0.2 -1.2,1.6 z m 39.8,43 q 0.3,1.7 0.3,2.9 0.4,1.1 -0.3,2.6 -0.7,0.9 -1.6,2.1 -0.8,0.8 -2.1,1.1 -1.2,-1.2 -1.9,-1.1 -0.3,0.3 -1,0.5 -2.8,-0.9 -4.2,-2.5 -0.3,-1.7 -0.8,-3.5 -0.2,-1.8 0.2,-3.6 0.5,-1 1.3,-1.9 1.1,-0.7 2.4,0.3 1.1,-1.2 3.3,0 2.4,1.2 4.4,3.1 z m -36.4,35.2 q 0.8,3 0,5.1 -0.8,2.1 -2.6,3.2 -1.7,0.8 -3.9,0.2 -2.3,-0.5 -4.4,-2.8 -1.2,-2.5 -3.5,-5.5 -2,-2.7 0.1,-5 1.5,-0.3 3.2,-0.2 1.8,-0.1 3.9,1 1.6,-0.3 3.5,0.5 2.1,1.1 3.7,3.5 z m -31.4,-19.3 q 0,1.2 -0.4,1.8 -0.3,0.3 -0.8,1.1 -1.2,0.2 -2.6,0 -1.1,0 -2.3,-2.1 -0.8,-1.5 -0.9,-3.1 -0.1,-1.8 -0.3,-3.4 1.5,-1.4 4,0.8 2.7,2.1 3.3,4.9 z m 7.4,-147.2 q 0.2,1.8 0.3,3.3 -3.1,5.1 -9,3.6 -1.7,-1.8 -2.7,-3.8 1,-1.5 1.6,-2 0.7,-0.8 1.4,-1.5 1.2,0.3 1.8,-0.3 0.9,-0.4 1.8,-0.8 1,0.7 2.3,0.5 1.3,-0.1 2.5,1 z" />
  <metadata
     id="metadata834">
    <rdf:RDF>
      <cc:Work
         rdf:about="">
        <dc:title>CrumpleZone_simpl</dc:title>
      </cc:Work>
    </rdf:RDF>
  </metadata>
</svg>
