999
"DXF R12 Output" (www.mydxf.blogspot.com)
 0 
SECTION
 2 
HEADER
 9 
$ACADVER
 1 
AC1009
 9 
$EXTMIN
 10 
 0 
 20 
 0 
 9 
$EXTMAX
 10 
 8.5 
 20 
 11 
 0 
ENDSEC
 0 
SECTION
 2 
ENTITIES
0
LINE
8
Layer 1
10
0.846666
20
317.647000
11
-0.846666
21
315.953000
0
LINE
8
Layer 1
10
0.000000
20
318.211000
11
0.000000
21
315.389000
0
LINE
8
Layer 1
10
2.257780
20
315.671000
11
1.128890
21
314.542110
0
LINE
8
Layer 1
10
1.693330
20
316.236000
11
0.564440
21
315.107110
0
LINE
8
Layer 1
10
1.128890
20
316.800000
11
0.000000
21
315.671110
0
LINE
8
0
10
49.569000
20
291.661000
11
45.309596
21
289.816099
0
LINE
8
0
10
45.309596
20
289.816099
11
41.310168
21
287.541324
0
LINE
8
0
10
41.310168
20
287.541324
11
37.599033
21
284.864991
0
LINE
8
0
10
37.599033
20
284.864991
11
34.204506
21
281.815415
0
LINE
8
0
10
34.204506
20
281.815415
11
31.154904
21
278.420913
0
LINE
8
0
10
31.154904
20
278.420913
11
28.478542
21
274.709799
0
LINE
8
0
10
28.478542
20
274.709799
11
26.203735
21
270.710390
0
LINE
8
0
10
26.203735
20
270.710390
11
24.358800
21
266.451000
0
LINE
8
0
10
14.354900
20
259.485000
11
16.002746
21
259.612595
0
LINE
8
0
10
16.002746
20
259.612595
11
17.583250
21
259.984655
0
LINE
8
0
10
17.583250
20
259.984655
11
19.073316
21
260.585100
0
LINE
8
0
10
19.073316
20
260.585100
11
20.449851
21
261.397852
0
LINE
8
0
10
20.449851
20
261.397852
11
21.689760
21
262.406830
0
LINE
8
0
10
21.689760
20
262.406830
11
22.769951
21
263.595955
0
LINE
8
0
10
22.769951
20
263.595955
11
23.667329
21
264.949148
0
LINE
8
0
10
23.667329
20
264.949148
11
24.358800
21
266.450330
0
LINE
8
0
10
14.355000
20
259.485000
11
10.294400
21
259.485000
0
LINE
8
0
10
10.294400
20
259.485000
11
8.248808
21
259.213609
0
LINE
8
0
10
8.248808
20
259.213609
11
6.374405
21
258.434632
0
LINE
8
0
10
6.374405
20
258.434632
11
4.762592
21
257.200837
0
LINE
8
0
10
4.762592
20
257.200837
11
3.504769
21
255.564995
0
LINE
8
0
10
3.504769
20
255.564995
11
2.717000
21
253.657768
0
LINE
8
0
10
2.717000
20
253.657768
11
2.454410
21
251.645000
0
LINE
8
0
10
2.454410
20
251.645000
11
2.717000
21
249.632232
0
LINE
8
0
10
2.717000
20
249.632232
11
3.504769
21
247.725005
0
LINE
8
0
10
3.504769
20
247.725005
11
4.762592
21
246.089163
0
LINE
8
0
10
4.762592
20
246.089163
11
6.374405
21
244.855369
0
LINE
8
0
10
6.374405
20
244.855369
11
8.248808
21
244.076395
0
LINE
8
0
10
8.248808
20
244.076395
11
10.294400
21
243.805010
0
LINE
8
0
10
10.294400
20
243.805000
11
14.355000
21
243.805000
0
LINE
8
0
10
24.358800
20
236.840000
11
23.667294
21
238.341132
0
LINE
8
0
10
23.667294
20
238.341132
11
22.769893
21
239.694276
0
LINE
8
0
10
22.769893
20
239.694276
11
21.689690
21
240.883352
0
LINE
8
0
10
21.689690
20
240.883352
11
20.449778
21
241.892284
0
LINE
8
0
10
20.449778
20
241.892284
11
19.073250
21
242.704993
0
LINE
8
0
10
19.073250
20
242.704993
11
17.583199
21
243.305400
0
LINE
8
0
10
17.583199
20
243.305400
11
16.002718
21
243.677429
0
LINE
8
0
10
16.002718
20
243.677429
11
14.354900
21
243.805000
0
LINE
8
0
10
24.358800
20
236.840000
11
26.203719
21
232.580582
0
LINE
8
0
10
26.203719
20
232.580582
11
28.478515
21
228.581144
0
LINE
8
0
10
28.478515
20
228.581144
11
31.154872
21
224.870002
0
LINE
8
0
10
31.154872
20
224.870002
11
34.204472
21
221.475472
0
LINE
8
0
10
34.204472
20
221.475472
11
37.599002
21
218.425872
0
LINE
8
0
10
37.599002
20
218.425872
11
41.310144
21
215.749515
0
LINE
8
0
10
41.310144
20
215.749515
11
45.309582
21
213.474719
0
LINE
8
0
10
45.309582
20
213.474719
11
49.569000
21
211.629800
0
LINE
8
0
10
56.534300
20
201.626000
11
56.406721
21
203.273858
0
LINE
8
0
10
56.406721
20
203.273858
11
56.034673
21
204.854374
0
LINE
8
0
10
56.034673
20
204.854374
11
55.434236
21
206.344454
0
LINE
8
0
10
55.434236
20
206.344454
11
54.621489
21
207.721003
0
LINE
8
0
10
54.621489
20
207.721003
11
53.612513
21
208.960926
0
LINE
8
0
10
53.612513
20
208.960926
11
52.423386
21
210.041130
0
LINE
8
0
10
52.423386
20
210.041130
11
51.070189
21
210.938519
0
LINE
8
0
10
51.070189
20
210.938519
11
49.569000
21
211.630000
0
LINE
8
0
10
56.534300
20
201.627000
11
56.534300
21
197.566000
0
LINE
8
0
10
56.534300
20
197.565000
11
56.805691
21
195.519408
0
LINE
8
0
10
56.805691
20
195.519408
11
57.584668
21
193.645005
0
LINE
8
0
10
57.584668
20
193.645005
11
58.818463
21
192.033192
0
LINE
8
0
10
58.818463
20
192.033192
11
60.454305
21
190.775369
0
LINE
8
0
10
60.454305
20
190.775369
11
62.361532
21
189.987600
0
LINE
8
0
10
62.361532
20
189.987600
11
64.374300
21
189.725010
0
LINE
8
0
10
64.374300
20
189.725010
11
66.387068
21
189.987600
0
LINE
8
0
10
66.387068
20
189.987600
11
68.294295
21
190.775369
0
LINE
8
0
10
68.294295
20
190.775369
11
69.930137
21
192.033192
0
LINE
8
0
10
69.930137
20
192.033192
11
71.163931
21
193.645005
0
LINE
8
0
10
71.163931
20
193.645005
11
71.942905
21
195.519408
0
LINE
8
0
10
71.942905
20
195.519408
11
72.214290
21
197.565000
0
LINE
8
0
10
72.214300
20
197.566000
11
72.214300
21
201.627000
0
LINE
8
0
10
79.179700
20
211.630000
11
77.678518
21
210.938529
0
LINE
8
0
10
77.678518
20
210.938529
11
76.325325
21
210.041151
0
LINE
8
0
10
76.325325
20
210.041151
11
75.136200
21
208.960960
0
LINE
8
0
10
75.136200
20
208.960960
11
74.127222
21
207.721051
0
LINE
8
0
10
74.127222
20
207.721051
11
73.314470
21
206.344516
0
LINE
8
0
10
73.314470
20
206.344516
11
72.714025
21
204.854450
0
LINE
8
0
10
72.714025
20
204.854450
11
72.341965
21
203.273946
0
LINE
8
0
10
72.341965
20
203.273946
11
72.214370
21
201.626100
0
LINE
8
0
10
79.179700
20
211.630000
11
83.439118
21
213.474919
0
LINE
8
0
10
83.439118
20
213.474919
11
87.438556
21
215.749715
0
LINE
8
0
10
87.438556
20
215.749715
11
91.149698
21
218.426072
0
LINE
8
0
10
91.149698
20
218.426072
11
94.544228
21
221.475672
0
LINE
8
0
10
94.544228
20
221.475672
11
97.593828
21
224.870202
0
LINE
8
0
10
97.593828
20
224.870202
11
100.270185
21
228.581344
0
LINE
8
0
10
100.270185
20
228.581344
11
102.544981
21
232.580782
0
LINE
8
0
10
102.544981
20
232.580782
11
104.389900
21
236.840200
0
LINE
8
0
10
114.394000
20
243.805000
11
112.746154
21
243.677405
0
LINE
8
0
10
112.746154
20
243.677405
11
111.165650
21
243.305345
0
LINE
8
0
10
111.165650
20
243.305345
11
109.675584
21
242.704900
0
LINE
8
0
10
109.675584
20
242.704900
11
108.299049
21
241.892148
0
LINE
8
0
10
108.299049
20
241.892148
11
107.059140
21
240.883170
0
LINE
8
0
10
107.059140
20
240.883170
11
105.978949
21
239.694045
0
LINE
8
0
10
105.978949
20
239.694045
11
105.081571
21
238.340852
0
LINE
8
0
10
105.081571
20
238.340852
11
104.390100
21
236.839670
0
LINE
8
0
10
114.394000
20
243.805000
11
118.454000
21
243.805000
0
LINE
8
0
10
118.454000
20
243.805000
11
120.499592
21
244.076391
0
LINE
8
0
10
120.499592
20
244.076391
11
122.373995
21
244.855368
0
LINE
8
0
10
122.373995
20
244.855368
11
123.985808
21
246.089163
0
LINE
8
0
10
123.985808
20
246.089163
11
125.243631
21
247.725005
0
LINE
8
0
10
125.243631
20
247.725005
11
126.031400
21
249.632232
0
LINE
8
0
10
126.031400
20
249.632232
11
126.293990
21
251.645000
0
LINE
8
0
10
126.293990
20
251.645000
11
126.031400
21
253.657768
0
LINE
8
0
10
126.031400
20
253.657768
11
125.243631
21
255.564995
0
LINE
8
0
10
125.243631
20
255.564995
11
123.985808
21
257.200837
0
LINE
8
0
10
123.985808
20
257.200837
11
122.373995
21
258.434631
0
LINE
8
0
10
122.373995
20
258.434631
11
120.499592
21
259.213605
0
LINE
8
0
10
120.499592
20
259.213605
11
118.454000
21
259.484990
0
LINE
8
0
10
118.454000
20
259.485000
11
114.394000
21
259.485000
0
LINE
8
0
10
104.390000
20
266.451000
11
105.081471
21
264.949818
0
LINE
8
0
10
105.081471
20
264.949818
11
105.978849
21
263.596625
0
LINE
8
0
10
105.978849
20
263.596625
11
107.059040
21
262.407500
0
LINE
8
0
10
107.059040
20
262.407500
11
108.298949
21
261.398522
0
LINE
8
0
10
108.298949
20
261.398522
11
109.675484
21
260.585770
0
LINE
8
0
10
109.675484
20
260.585770
11
111.165550
21
259.985325
0
LINE
8
0
10
111.165550
20
259.985325
11
112.746054
21
259.613265
0
LINE
8
0
10
112.746054
20
259.613265
11
114.393900
21
259.485670
0
LINE
8
0
10
104.390000
20
266.451000
11
102.545056
21
270.710397
0
LINE
8
0
10
102.545056
20
270.710397
11
100.270239
21
274.709811
0
LINE
8
0
10
100.270239
20
274.709811
11
97.593865
21
278.420929
0
LINE
8
0
10
97.593865
20
278.420929
11
94.544250
21
281.815432
0
LINE
8
0
10
94.544250
20
281.815432
11
91.149709
21
284.865007
0
LINE
8
0
10
91.149709
20
284.865007
11
87.438560
21
287.541337
0
LINE
8
0
10
87.438560
20
287.541337
11
83.439119
21
289.816107
0
LINE
8
0
10
83.439119
20
289.816107
11
79.179700
21
291.661000
0
LINE
8
0
10
72.214300
20
301.665000
11
72.341895
21
300.017154
0
LINE
8
0
10
72.341895
20
300.017154
11
72.713955
21
298.436650
0
LINE
8
0
10
72.713955
20
298.436650
11
73.314400
21
296.946584
0
LINE
8
0
10
73.314400
20
296.946584
11
74.127152
21
295.570049
0
LINE
8
0
10
74.127152
20
295.570049
11
75.136130
21
294.330140
0
LINE
8
0
10
75.136130
20
294.330140
11
76.325255
21
293.249949
0
LINE
8
0
10
76.325255
20
293.249949
11
77.678448
21
292.352571
0
LINE
8
0
10
77.678448
20
292.352571
11
79.179630
21
291.661100
0
LINE
8
0
10
72.214300
20
301.665000
11
72.214300
21
305.725000
0
LINE
8
0
10
72.214300
20
305.725000
11
71.942909
21
307.770592
0
LINE
8
0
10
71.942909
20
307.770592
11
71.163932
21
309.644995
0
LINE
8
0
10
71.163932
20
309.644995
11
69.930137
21
311.256808
0
LINE
8
0
10
69.930137
20
311.256808
11
68.294295
21
312.514631
0
LINE
8
0
10
68.294295
20
312.514631
11
66.387068
21
313.302400
0
LINE
8
0
10
66.387068
20
313.302400
11
64.374300
21
313.564990
0
LINE
8
0
10
64.374300
20
313.564990
11
62.361532
21
313.302400
0
LINE
8
0
10
62.361532
20
313.302400
11
60.454305
21
312.514631
0
LINE
8
0
10
60.454305
20
312.514631
11
58.818463
21
311.256808
0
LINE
8
0
10
58.818463
20
311.256808
11
57.584669
21
309.644995
0
LINE
8
0
10
57.584669
20
309.644995
11
56.805695
21
307.770592
0
LINE
8
0
10
56.805695
20
307.770592
11
56.534310
21
305.725000
0
LINE
8
0
10
56.534300
20
305.725000
11
56.534300
21
301.665000
0
LINE
8
0
10
49.569000
20
291.661000
11
51.070182
21
292.352471
0
LINE
8
0
10
51.070182
20
292.352471
11
52.423375
21
293.249849
0
LINE
8
0
10
52.423375
20
293.249849
11
53.612500
21
294.330040
0
LINE
8
0
10
53.612500
20
294.330040
11
54.621478
21
295.569949
0
LINE
8
0
10
54.621478
20
295.569949
11
55.434230
21
296.946484
0
LINE
8
0
10
55.434230
20
296.946484
11
56.034675
21
298.436550
0
LINE
8
0
10
56.034675
20
298.436550
11
56.406735
21
300.017054
0
LINE
8
0
10
56.406735
20
300.017054
11
56.534330
21
301.664900
0
LINE
8
0
10
101.708000
20
251.645000
11
101.625267
21
254.132850
0
LINE
8
0
10
101.625267
20
254.132850
11
101.379687
21
256.590154
0
LINE
8
0
10
101.379687
20
256.590154
11
100.975186
21
259.010110
0
LINE
8
0
10
100.975186
20
259.010110
11
100.415690
21
261.385917
0
LINE
8
0
10
100.415690
20
261.385917
11
99.705126
21
263.710776
0
LINE
8
0
10
99.705126
20
263.710776
11
98.847419
21
265.977884
0
LINE
8
0
10
98.847419
20
265.977884
11
97.846497
21
268.180443
0
LINE
8
0
10
97.846497
20
268.180443
11
96.706286
21
270.311650
0
LINE
8
0
10
96.706286
20
270.311650
11
95.430712
21
272.364706
0
LINE
8
0
10
95.430712
20
272.364706
11
94.023702
21
274.332809
0
LINE
8
0
10
94.023702
20
274.332809
11
92.489181
21
276.209158
0
LINE
8
0
10
92.489181
20
276.209158
11
90.831077
21
277.986955
0
LINE
8
0
10
90.831077
20
277.986955
11
89.053315
21
279.659396
0
LINE
8
0
10
89.053315
20
279.659396
11
87.159822
21
281.219682
0
LINE
8
0
10
87.159822
20
281.219682
11
85.154525
21
282.661013
0
LINE
8
0
10
85.154525
20
282.661013
11
83.041350
21
283.976586
0
LINE
8
0
10
83.041350
20
283.976586
11
80.845442
21
285.148863
0
LINE
8
0
10
80.845442
20
285.148863
11
78.594565
21
286.164836
0
LINE
8
0
10
78.594565
20
286.164836
11
76.296571
21
287.024506
0
LINE
8
0
10
76.296571
20
287.024506
11
73.959313
21
287.727872
0
LINE
8
0
10
73.959313
20
287.727872
11
71.590645
21
288.274934
0
LINE
8
0
10
71.590645
20
288.274934
11
69.198418
21
288.665693
0
LINE
8
0
10
69.198418
20
288.665693
11
66.790485
21
288.900148
0
LINE
8
0
10
66.790485
20
288.900148
11
64.374700
21
288.978300
0
LINE
8
0
10
64.374700
20
288.978300
11
61.958915
21
288.900148
0
LINE
8
0
10
61.958915
20
288.900148
11
59.550982
21
288.665693
0
LINE
8
0
10
59.550982
20
288.665693
11
57.158755
21
288.274934
0
LINE
8
0
10
57.158755
20
288.274934
11
54.790087
21
287.727872
0
LINE
8
0
10
54.790087
20
287.727872
11
52.452829
21
287.024506
0
LINE
8
0
10
52.452829
20
287.024506
11
50.154835
21
286.164836
0
LINE
8
0
10
50.154835
20
286.164836
11
47.903958
21
285.148863
0
LINE
8
0
10
47.903958
20
285.148863
11
45.708050
21
283.976586
0
LINE
8
0
10
45.708050
20
283.976586
11
43.594875
21
282.661013
0
LINE
8
0
10
43.594875
20
282.661013
11
41.589578
21
281.219682
0
LINE
8
0
10
41.589578
20
281.219682
11
39.696085
21
279.659396
0
LINE
8
0
10
39.696085
20
279.659396
11
37.918323
21
277.986955
0
LINE
8
0
10
37.918323
20
277.986955
11
36.260219
21
276.209158
0
LINE
8
0
10
36.260219
20
276.209158
11
34.725698
21
274.332809
0
LINE
8
0
10
34.725698
20
274.332809
11
33.318688
21
272.364706
0
LINE
8
0
10
33.318688
20
272.364706
11
32.043114
21
270.311650
0
LINE
8
0
10
32.043114
20
270.311650
11
30.902903
21
268.180443
0
LINE
8
0
10
30.902903
20
268.180443
11
29.901981
21
265.977884
0
LINE
8
0
10
29.901981
20
265.977884
11
29.044274
21
263.710776
0
LINE
8
0
10
29.044274
20
263.710776
11
28.333710
21
261.385917
0
LINE
8
0
10
28.333710
20
261.385917
11
27.774214
21
259.010110
0
LINE
8
0
10
27.774214
20
259.010110
11
27.369713
21
256.590154
0
LINE
8
0
10
27.369713
20
256.590154
11
27.124133
21
254.132850
0
LINE
8
0
10
27.124133
20
254.132850
11
27.041400
21
251.645000
0
LINE
8
0
10
27.041400
20
251.645000
11
27.124133
21
249.157150
0
LINE
8
0
10
27.124133
20
249.157150
11
27.369713
21
246.699846
0
LINE
8
0
10
27.369713
20
246.699846
11
27.774214
21
244.279890
0
LINE
8
0
10
27.774214
20
244.279890
11
28.333710
21
241.904083
0
LINE
8
0
10
28.333710
20
241.904083
11
29.044274
21
239.579224
0
LINE
8
0
10
29.044274
20
239.579224
11
29.901981
21
237.312116
0
LINE
8
0
10
29.901981
20
237.312116
11
30.902903
21
235.109557
0
LINE
8
0
10
30.902903
20
235.109557
11
32.043114
21
232.978350
0
LINE
8
0
10
32.043114
20
232.978350
11
33.318688
21
230.925294
0
LINE
8
0
10
33.318688
20
230.925294
11
34.725698
21
228.957191
0
LINE
8
0
10
34.725698
20
228.957191
11
36.260219
21
227.080842
0
LINE
8
0
10
36.260219
20
227.080842
11
37.918323
21
225.303045
0
LINE
8
0
10
37.918323
20
225.303045
11
39.696085
21
223.630604
0
LINE
8
0
10
39.696085
20
223.630604
11
41.589578
21
222.070318
0
LINE
8
0
10
41.589578
20
222.070318
11
43.594875
21
220.628987
0
LINE
8
0
10
43.594875
20
220.628987
11
45.708050
21
219.313414
0
LINE
8
0
10
45.708050
20
219.313414
11
47.903958
21
218.141137
0
LINE
8
0
10
47.903958
20
218.141137
11
50.154835
21
217.125164
0
LINE
8
0
10
50.154835
20
217.125164
11
52.452829
21
216.265494
0
LINE
8
0
10
52.452829
20
216.265494
11
54.790087
21
215.562128
0
LINE
8
0
10
54.790087
20
215.562128
11
57.158755
21
215.015066
0
LINE
8
0
10
57.158755
20
215.015066
11
59.550982
21
214.624307
0
LINE
8
0
10
59.550982
20
214.624307
11
61.958915
21
214.389852
0
LINE
8
0
10
61.958915
20
214.389852
11
64.374700
21
214.311700
0
LINE
8
0
10
64.374700
20
214.311700
11
66.790485
21
214.389852
0
LINE
8
0
10
66.790485
20
214.389852
11
69.198418
21
214.624307
0
LINE
8
0
10
69.198418
20
214.624307
11
71.590645
21
215.015066
0
LINE
8
0
10
71.590645
20
215.015066
11
73.959313
21
215.562128
0
LINE
8
0
10
73.959313
20
215.562128
11
76.296571
21
216.265494
0
LINE
8
0
10
76.296571
20
216.265494
11
78.594565
21
217.125164
0
LINE
8
0
10
78.594565
20
217.125164
11
80.845442
21
218.141137
0
LINE
8
0
10
80.845442
20
218.141137
11
83.041350
21
219.313414
0
LINE
8
0
10
83.041350
20
219.313414
11
85.154525
21
220.628987
0
LINE
8
0
10
85.154525
20
220.628987
11
87.159822
21
222.070318
0
LINE
8
0
10
87.159822
20
222.070318
11
89.053315
21
223.630604
0
LINE
8
0
10
89.053315
20
223.630604
11
90.831077
21
225.303045
0
LINE
8
0
10
90.831077
20
225.303045
11
92.489181
21
227.080842
0
LINE
8
0
10
92.489181
20
227.080842
11
94.023702
21
228.957191
0
LINE
8
0
10
94.023702
20
228.957191
11
95.430712
21
230.925294
0
LINE
8
0
10
95.430712
20
230.925294
11
96.706286
21
232.978350
0
LINE
8
0
10
96.706286
20
232.978350
11
97.846497
21
235.109557
0
LINE
8
0
10
97.846497
20
235.109557
11
98.847419
21
237.312116
0
LINE
8
0
10
98.847419
20
237.312116
11
99.705126
21
239.579224
0
LINE
8
0
10
99.705126
20
239.579224
11
100.415690
21
241.904083
0
LINE
8
0
10
100.415690
20
241.904083
11
100.975186
21
244.279890
0
LINE
8
0
10
100.975186
20
244.279890
11
101.379687
21
246.699846
0
LINE
8
0
10
101.379687
20
246.699846
11
101.625267
21
249.157150
0
LINE
8
0
10
101.625267
20
249.157150
11
101.708000
21
251.645000
0
LINE
8
0
10
101.708000
20
251.645000
11
101.708000
21
251.645000
0
LINE
8
0
10
67.947700
20
305.725000
11
67.824007
21
306.657345
0
LINE
8
0
10
67.824007
20
306.657345
11
67.468965
21
307.511665
0
LINE
8
0
10
67.468965
20
307.511665
11
66.906623
21
308.246301
0
LINE
8
0
10
66.906623
20
308.246301
11
66.161035
21
308.819595
0
LINE
8
0
10
66.161035
20
308.819595
11
65.291754
21
309.178646
0
LINE
8
0
10
65.291754
20
309.178646
11
64.374370
21
309.298330
0
LINE
8
0
10
64.374370
20
309.298330
11
63.456986
21
309.178646
0
LINE
8
0
10
63.456986
20
309.178646
11
62.587705
21
308.819595
0
LINE
8
0
10
62.587705
20
308.819595
11
61.842117
21
308.246301
0
LINE
8
0
10
61.842117
20
308.246301
11
61.279775
21
307.511665
0
LINE
8
0
10
61.279775
20
307.511665
11
60.924733
21
306.657345
0
LINE
8
0
10
60.924733
20
306.657345
11
60.801040
21
305.725000
0
LINE
8
0
10
60.801040
20
305.725000
11
60.924733
21
304.792655
0
LINE
8
0
10
60.924733
20
304.792655
11
61.279775
21
303.938335
0
LINE
8
0
10
61.279775
20
303.938335
11
61.842117
21
303.203699
0
LINE
8
0
10
61.842117
20
303.203699
11
62.587705
21
302.630405
0
LINE
8
0
10
62.587705
20
302.630405
11
63.456986
21
302.271354
0
LINE
8
0
10
63.456986
20
302.271354
11
64.374370
21
302.151670
0
LINE
8
0
10
64.374370
20
302.151670
11
65.291754
21
302.271354
0
LINE
8
0
10
65.291754
20
302.271354
11
66.161035
21
302.630405
0
LINE
8
0
10
66.161035
20
302.630405
11
66.906623
21
303.203699
0
LINE
8
0
10
66.906623
20
303.203699
11
67.468965
21
303.938335
0
LINE
8
0
10
67.468965
20
303.938335
11
67.824007
21
304.792655
0
LINE
8
0
10
67.824007
20
304.792655
11
67.947700
21
305.725000
0
LINE
8
0
10
67.947700
20
305.725000
11
67.947700
21
305.725000
0
LINE
8
0
10
13.867700
20
251.645000
11
13.744007
21
252.577345
0
LINE
8
0
10
13.744007
20
252.577345
11
13.388965
21
253.431665
0
LINE
8
0
10
13.388965
20
253.431665
11
12.826623
21
254.166301
0
LINE
8
0
10
12.826623
20
254.166301
11
12.081035
21
254.739595
0
LINE
8
0
10
12.081035
20
254.739595
11
11.211754
21
255.098646
0
LINE
8
0
10
11.211754
20
255.098646
11
10.294370
21
255.218330
0
LINE
8
0
10
10.294370
20
255.218330
11
9.376986
21
255.098646
0
LINE
8
0
10
9.376986
20
255.098646
11
8.507705
21
254.739595
0
LINE
8
0
10
8.507705
20
254.739595
11
7.762117
21
254.166301
0
LINE
8
0
10
7.762117
20
254.166301
11
7.199775
21
253.431665
0
LINE
8
0
10
7.199775
20
253.431665
11
6.844733
21
252.577345
0
LINE
8
0
10
6.844733
20
252.577345
11
6.721040
21
251.645000
0
LINE
8
0
10
6.721040
20
251.645000
11
6.844733
21
250.712655
0
LINE
8
0
10
6.844733
20
250.712655
11
7.199775
21
249.858335
0
LINE
8
0
10
7.199775
20
249.858335
11
7.762117
21
249.123699
0
LINE
8
0
10
7.762117
20
249.123699
11
8.507705
21
248.550405
0
LINE
8
0
10
8.507705
20
248.550405
11
9.376986
21
248.191354
0
LINE
8
0
10
9.376986
20
248.191354
11
10.294370
21
248.071670
0
LINE
8
0
10
10.294370
20
248.071670
11
11.211754
21
248.191354
0
LINE
8
0
10
11.211754
20
248.191354
11
12.081035
21
248.550405
0
LINE
8
0
10
12.081035
20
248.550405
11
12.826623
21
249.123699
0
LINE
8
0
10
12.826623
20
249.123699
11
13.388965
21
249.858335
0
LINE
8
0
10
13.388965
20
249.858335
11
13.744007
21
250.712655
0
LINE
8
0
10
13.744007
20
250.712655
11
13.867700
21
251.645000
0
LINE
8
0
10
13.867700
20
251.645000
11
13.867700
21
251.645000
0
LINE
8
0
10
67.947700
20
197.565000
11
67.824007
21
198.497345
0
LINE
8
0
10
67.824007
20
198.497345
11
67.468965
21
199.351665
0
LINE
8
0
10
67.468965
20
199.351665
11
66.906623
21
200.086301
0
LINE
8
0
10
66.906623
20
200.086301
11
66.161035
21
200.659595
0
LINE
8
0
10
66.161035
20
200.659595
11
65.291754
21
201.018646
0
LINE
8
0
10
65.291754
20
201.018646
11
64.374370
21
201.138330
0
LINE
8
0
10
64.374370
20
201.138330
11
63.456986
21
201.018646
0
LINE
8
0
10
63.456986
20
201.018646
11
62.587705
21
200.659595
0
LINE
8
0
10
62.587705
20
200.659595
11
61.842117
21
200.086301
0
LINE
8
0
10
61.842117
20
200.086301
11
61.279775
21
199.351665
0
LINE
8
0
10
61.279775
20
199.351665
11
60.924733
21
198.497345
0
LINE
8
0
10
60.924733
20
198.497345
11
60.801040
21
197.565000
0
LINE
8
0
10
60.801040
20
197.565000
11
60.924733
21
196.632655
0
LINE
8
0
10
60.924733
20
196.632655
11
61.279775
21
195.778335
0
LINE
8
0
10
61.279775
20
195.778335
11
61.842117
21
195.043699
0
LINE
8
0
10
61.842117
20
195.043699
11
62.587705
21
194.470405
0
LINE
8
0
10
62.587705
20
194.470405
11
63.456986
21
194.111354
0
LINE
8
0
10
63.456986
20
194.111354
11
64.374370
21
193.991670
0
LINE
8
0
10
64.374370
20
193.991670
11
65.291754
21
194.111354
0
LINE
8
0
10
65.291754
20
194.111354
11
66.161035
21
194.470405
0
LINE
8
0
10
66.161035
20
194.470405
11
66.906623
21
195.043699
0
LINE
8
0
10
66.906623
20
195.043699
11
67.468965
21
195.778335
0
LINE
8
0
10
67.468965
20
195.778335
11
67.824007
21
196.632655
0
LINE
8
0
10
67.824007
20
196.632655
11
67.947700
21
197.565000
0
LINE
8
0
10
67.947700
20
197.565000
11
67.947700
21
197.565000
0
LINE
8
0
10
122.028000
20
251.645000
11
121.904307
21
252.577345
0
LINE
8
0
10
121.904307
20
252.577345
11
121.549265
21
253.431665
0
LINE
8
0
10
121.549265
20
253.431665
11
120.986923
21
254.166301
0
LINE
8
0
10
120.986923
20
254.166301
11
120.241335
21
254.739595
0
LINE
8
0
10
120.241335
20
254.739595
11
119.372054
21
255.098646
0
LINE
8
0
10
119.372054
20
255.098646
11
118.454670
21
255.218330
0
LINE
8
0
10
118.454670
20
255.218330
11
117.537286
21
255.098646
0
LINE
8
0
10
117.537286
20
255.098646
11
116.668005
21
254.739595
0
LINE
8
0
10
116.668005
20
254.739595
11
115.922417
21
254.166301
0
LINE
8
0
10
115.922417
20
254.166301
11
115.360075
21
253.431665
0
LINE
8
0
10
115.360075
20
253.431665
11
115.005033
21
252.577345
0
LINE
8
0
10
115.005033
20
252.577345
11
114.881340
21
251.645000
0
LINE
8
0
10
114.881340
20
251.645000
11
115.005033
21
250.712655
0
LINE
8
0
10
115.005033
20
250.712655
11
115.360075
21
249.858335
0
LINE
8
0
10
115.360075
20
249.858335
11
115.922417
21
249.123699
0
LINE
8
0
10
115.922417
20
249.123699
11
116.668005
21
248.550405
0
LINE
8
0
10
116.668005
20
248.550405
11
117.537286
21
248.191354
0
LINE
8
0
10
117.537286
20
248.191354
11
118.454670
21
248.071670
0
LINE
8
0
10
118.454670
20
248.071670
11
119.372054
21
248.191354
0
LINE
8
0
10
119.372054
20
248.191354
11
120.241335
21
248.550405
0
LINE
8
0
10
120.241335
20
248.550405
11
120.986923
21
249.123699
0
LINE
8
0
10
120.986923
20
249.123699
11
121.549265
21
249.858335
0
LINE
8
0
10
121.549265
20
249.858335
11
121.904307
21
250.712655
0
LINE
8
0
10
121.904307
20
250.712655
11
122.028000
21
251.645000
0
LINE
8
0
10
122.028000
20
251.645000
11
122.028000
21
251.645000
 0 
ENDSEC
 0 
EOF